<svg width="28" height="28" viewBox="0 0 28 28" fill="none" xmlns="http://www.w3.org/2000/svg">
<path d="M3.10356 5.43054C2.84203 5.09152 2.30261 5.34493 2.3966 5.76266L5.39192 19.0752C5.52329 19.6591 5.91551 20.1502 6.45583 20.4075V20.4075C11.2285 22.6802 16.7715 22.6803 21.5442 20.4075V20.4075C22.0845 20.1502 22.4767 19.6591 22.6081 19.0752L25.6034 5.76266C25.6974 5.34493 25.158 5.09152 24.8964 5.43053L19.2806 12.7103C19.0569 13.0003 18.6076 12.9593 18.4401 12.6335L14.3557 4.69167C14.2069 4.40225 13.7931 4.40225 13.6443 4.69167L9.55989 12.6335C9.39238 12.9593 8.94307 13.0003 8.71935 12.7103L3.10356 5.43054Z" stroke="#121212" stroke-width="2" stroke-linecap="round" stroke-linejoin="round"/>
</svg>
