<svg width="28" height="28" viewBox="0 0 28 28" fill="none" xmlns="http://www.w3.org/2000/svg">
<path d="M3.5 8.16667L3.5 11.6667M24.5 8.16667V11.6667M24.5 7V21C24.5 22.933 22.933 24.5 21 24.5H7C5.067 24.5 3.5 22.933 3.5 21L3.5 7C3.5 5.067 5.067 3.5 7 3.5L21 3.5C22.933 3.5 24.5 5.067 24.5 7Z" stroke="#121212" stroke-width="2" stroke-linecap="round" stroke-linejoin="round"/>
<path d="M10.5 8.16669L3.5 8.16669L3.5 11.6667C3.5 13.5997 5.067 15.1667 7 15.1667C8.933 15.1667 10.5 13.5997 10.5 11.6667M10.5 8.16669V11.6667M10.5 8.16669L17.5 8.16669M10.5 11.6667C10.5 13.5997 12.067 15.1667 14 15.1667C15.933 15.1667 17.5 13.5997 17.5 11.6667M17.5 8.16669V11.6667M17.5 8.16669H24.5V11.6667C24.5 13.5997 22.933 15.1667 21 15.1667C19.067 15.1667 17.5 13.5997 17.5 11.6667" stroke="#121212" stroke-width="2" stroke-linecap="round" stroke-linejoin="round"/>
</svg>
