<svg width="24" height="24" viewBox="0 0 24 24" fill="none" xmlns="http://www.w3.org/2000/svg">
<path d="M7.70147 9.8V20V9.8Z" fill="#FC650D"/>
<path d="M14.5598 6.298L13.7025 9.8H18.7005C18.9666 9.8 19.2292 9.86145 19.4672 9.97947C19.7053 10.0975 19.9124 10.2689 20.0721 10.48C20.2318 10.6911 20.3398 10.9362 20.3874 11.1959C20.435 11.4556 20.421 11.7226 20.3465 11.976L18.349 18.776C18.2451 19.1291 18.0285 19.4393 17.7317 19.66C17.4349 19.8807 17.074 20 16.703 20H5.12961C4.67488 20 4.23877 19.8209 3.91723 19.5021C3.59568 19.1833 3.41504 18.7509 3.41504 18.3V11.5C3.41504 11.0491 3.59568 10.6167 3.91723 10.2979C4.23877 9.97911 4.67488 9.8 5.12961 9.8H7.49573C7.81471 9.79983 8.12732 9.71144 8.39841 9.54476C8.6695 9.37808 8.88832 9.13973 9.03027 8.8565L11.9879 3C12.3922 3.00496 12.7901 3.10044 13.1519 3.27931C13.5138 3.45817 13.8302 3.71579 14.0775 4.03292C14.3248 4.35005 14.4966 4.7185 14.5801 5.11072C14.6636 5.50295 14.6567 5.90881 14.5598 6.298Z" fill="#FC650D"/>
<path d="M7.70147 9.8V20M14.5598 6.298L13.7025 9.8H18.7005C18.9666 9.8 19.2292 9.86145 19.4672 9.97947C19.7053 10.0975 19.9124 10.2689 20.0721 10.48C20.2318 10.6911 20.3398 10.9362 20.3874 11.1959C20.435 11.4556 20.421 11.7226 20.3465 11.976L18.349 18.776C18.2451 19.1291 18.0285 19.4393 17.7317 19.66C17.4349 19.8807 17.074 20 16.703 20H5.12961C4.67488 20 4.23877 19.8209 3.91723 19.5021C3.59568 19.1833 3.41504 18.7509 3.41504 18.3V11.5C3.41504 11.0491 3.59568 10.6167 3.91723 10.2979C4.23877 9.97911 4.67488 9.8 5.12961 9.8H7.49573C7.81471 9.79983 8.12732 9.71144 8.39841 9.54476C8.6695 9.37808 8.88832 9.13973 9.03027 8.8565L11.9879 3C12.3922 3.00496 12.7901 3.10044 13.1519 3.27931C13.5138 3.45817 13.8302 3.71579 14.0775 4.03292C14.3248 4.35005 14.4966 4.7185 14.5801 5.11072C14.6636 5.50295 14.6567 5.90881 14.5598 6.298Z" stroke="#FEECE1" stroke-width="2" stroke-linecap="round" stroke-linejoin="round"/>
</svg>
