<svg width="450" height="101" viewBox="0 0 450 101" fill="none" xmlns="http://www.w3.org/2000/svg">
<path d="M168.778 26.7656C168.7 25.8594 168.419 25.0859 167.934 24.4453C167.45 23.8047 166.778 23.3203 165.919 22.9922C165.075 22.6641 164.075 22.5 162.919 22.5C161.762 22.5 160.77 22.6641 159.942 22.9922C159.114 23.3203 158.481 23.7812 158.044 24.375C157.606 24.9531 157.387 25.6172 157.387 26.3672C157.356 27.5234 157.825 28.4297 158.794 29.0859C159.762 29.7266 161.098 30.2422 162.802 30.6328L165.848 31.3594C169.052 32.0938 171.544 33.2578 173.325 34.8516C175.122 36.4453 176.02 38.6016 176.02 41.3203C176.02 43.3828 175.497 45.1797 174.45 46.7109C173.419 48.2422 171.911 49.4219 169.927 50.25C167.958 51.0625 165.606 51.4688 162.872 51.4688C160.122 51.4844 157.739 51.0703 155.723 50.2266C153.723 49.3672 152.161 48.1172 151.036 46.4766C149.927 44.8203 149.333 42.7969 149.255 40.4062H156.098C156.177 41.5156 156.505 42.4609 157.083 43.2422C157.661 44.0078 158.434 44.5859 159.403 44.9766C160.387 45.3516 161.52 45.5391 162.802 45.5391C164.02 45.5391 165.091 45.3594 166.012 45C166.934 44.6406 167.645 44.1406 168.145 43.5C168.645 42.8594 168.895 42.1172 168.895 41.2734C168.895 40.5234 168.677 39.8828 168.239 39.3516C167.802 38.8203 167.161 38.375 166.317 38.0156C165.489 37.6562 164.419 37.3125 163.106 36.9844L159.38 36.0938C156.411 35.3594 154.13 34.2422 152.536 32.7422C150.942 31.2266 150.153 29.2578 150.169 26.8359C150.169 24.8203 150.716 23.0312 151.809 21.4688C152.903 19.9062 154.419 18.7031 156.356 17.8594C158.309 17.0156 160.52 16.5938 162.989 16.5938C165.458 16.5938 167.637 17.0234 169.528 17.8828C171.434 18.7266 172.911 19.9219 173.958 21.4688C175.005 23.0156 175.536 24.7812 175.552 26.7656H168.778ZM178.073 25.5469H185.011V51H178.073V25.5469ZM181.542 22.1953C180.839 22.1953 180.198 22.0391 179.62 21.7266C179.058 21.3984 178.605 20.9688 178.261 20.4375C177.917 19.9062 177.745 19.3203 177.745 18.6797C177.745 18.0547 177.917 17.4688 178.261 16.9219C178.605 16.375 179.066 15.9453 179.644 15.6328C180.222 15.3203 180.855 15.1641 181.542 15.1641C182.214 15.1641 182.839 15.3203 183.417 15.6328C183.995 15.9453 184.456 16.375 184.8 16.9219C185.144 17.4688 185.316 18.0547 185.316 18.6797C185.316 19.3203 185.144 19.9062 184.8 20.4375C184.456 20.9688 183.995 21.3984 183.417 21.7266C182.839 22.0391 182.214 22.1953 181.542 22.1953ZM199.416 61.0781C197.119 61.0781 195.111 60.75 193.392 60.0938C191.673 59.4375 190.322 58.5078 189.337 57.3047C188.369 56.1016 187.814 54.6953 187.673 53.0859H194.494C194.697 54.0859 195.236 54.8281 196.111 55.3125C197.002 55.8125 198.158 56.0547 199.58 56.0391C201.267 56.0547 202.58 55.6641 203.517 54.8672C204.47 54.0859 204.955 52.8594 204.97 51.1875V46.5H204.666L204.572 46.6875C204.166 47.4531 203.658 48.125 203.048 48.7031C202.455 49.2656 201.673 49.7344 200.705 50.1094C199.752 50.4688 198.642 50.6484 197.377 50.6484C195.408 50.6484 193.642 50.1797 192.08 49.2422C190.517 48.3047 189.283 46.8984 188.377 45.0234C187.486 43.1484 187.041 40.8438 187.041 38.1094C187.041 35.3438 187.502 32.9922 188.423 31.0547C189.345 29.1016 190.58 27.6406 192.127 26.6719C193.689 25.7031 195.439 25.2188 197.377 25.2188C198.627 25.2188 199.72 25.4141 200.658 25.8047C201.595 26.1953 202.345 26.6953 202.908 27.3047C203.486 27.8984 203.994 28.6016 204.431 29.4141C204.509 29.5234 204.58 29.6562 204.642 29.8125H204.923V25.5469H211.814V51.2812C211.814 53.3906 211.291 55.1797 210.244 56.6484C209.197 58.1172 207.744 59.2188 205.884 59.9531C204.025 60.7031 201.869 61.0781 199.416 61.0781ZM199.533 45.3984C200.689 45.3984 201.673 45.1094 202.486 44.5312C203.298 43.9531 203.916 43.125 204.337 42.0469C204.775 40.9688 204.994 39.6797 204.994 38.1797C204.994 36.6641 204.775 35.3516 204.337 34.2422C203.916 33.1172 203.298 32.2578 202.486 31.6641C201.673 31.0703 200.689 30.7734 199.533 30.7734C198.377 30.7734 197.392 31.0781 196.58 31.6875C195.783 32.2969 195.173 33.1641 194.752 34.2891C194.33 35.4141 194.119 36.7109 194.119 38.1797C194.119 39.6641 194.33 40.9453 194.752 42.0234C195.189 43.1016 195.806 43.9375 196.603 44.5312C197.4 45.1094 198.377 45.3984 199.533 45.3984ZM221.742 51H214.805V25.5469H221.414V30H221.695C222.273 28.5 223.227 27.3281 224.555 26.4844C225.898 25.6406 227.5 25.2188 229.359 25.2188C231.109 25.2188 232.641 25.6016 233.953 26.3672C235.281 27.1328 236.305 28.2422 237.023 29.6953C237.758 31.1328 238.125 32.8281 238.125 34.7812V51H231.188V35.9766C231.188 34.9453 231.008 34.0547 230.648 33.3047C230.305 32.5547 229.781 31.9844 229.078 31.5938C228.391 31.1875 227.57 30.9844 226.617 30.9844C225.648 30.9844 224.797 31.1953 224.062 31.6172C223.328 32.0234 222.758 32.625 222.352 33.4219C221.945 34.2188 221.742 35.1641 221.742 36.2578V51ZM266.137 25.5469H273.028V51H266.395V46.4062H266.114C265.52 47.9219 264.552 49.125 263.208 50.0156C261.864 50.8906 260.262 51.3281 258.403 51.3281C256.7 51.3281 255.2 50.9453 253.903 50.1797C252.606 49.3984 251.598 48.2891 250.88 46.8516C250.161 45.3984 249.802 43.6953 249.802 41.7422V25.5469H256.739V40.5469C256.739 41.5312 256.919 42.3984 257.278 43.1484C257.653 43.8828 258.169 44.4531 258.825 44.8594C259.497 45.25 260.278 45.4453 261.169 45.4453C262.044 45.4609 262.864 45.2656 263.63 44.8594C264.395 44.4375 265.005 43.8281 265.458 43.0312C265.911 42.2344 266.137 41.2734 266.137 40.1484V25.5469ZM276.042 25.5469H282.862V29.8125H283.191C283.253 29.6719 283.316 29.5469 283.378 29.4375C283.8 28.6406 284.3 27.9375 284.878 27.3281C285.456 26.7188 286.206 26.2188 287.128 25.8281C288.066 25.4219 289.167 25.2188 290.433 25.2188C292.355 25.2188 294.097 25.7109 295.659 26.6953C297.237 27.6797 298.48 29.1641 299.386 31.1484C300.292 33.1172 300.745 35.5 300.745 38.2969C300.745 41.0625 300.3 43.4297 299.409 45.3984C298.519 47.3516 297.284 48.8438 295.706 49.875C294.144 50.8906 292.378 51.3984 290.409 51.3984C289.159 51.3984 288.058 51.1953 287.105 50.7891C286.167 50.3828 285.394 49.875 284.784 49.2656C284.191 48.6562 283.691 47.9453 283.284 47.1328L283.191 46.9453H282.98V60.5625H276.042V25.5469ZM282.792 38.25C282.808 39.7812 283.027 41.1172 283.448 42.2578C283.886 43.3828 284.511 44.2656 285.323 44.9062C286.152 45.5469 287.136 45.8672 288.277 45.8672C289.417 45.8672 290.394 45.5469 291.206 44.9062C292.034 44.2656 292.652 43.375 293.058 42.2344C293.48 41.0938 293.691 39.7656 293.691 38.25C293.691 36.75 293.48 35.4375 293.058 34.3125C292.652 33.1875 292.034 32.3203 291.206 31.7109C290.394 31.0859 289.417 30.7734 288.277 30.7734C287.12 30.7734 286.136 31.0703 285.323 31.6641C284.511 32.2578 283.886 33.125 283.448 34.2656C283.027 35.3906 282.808 36.7188 282.792 38.25Z" fill="black"/>
<path d="M87.1064 91.4102H84.8681V74.9805H87.1064V91.4102ZM90.0947 84.0508H86.2275V82.1992H90.0947V84.0508ZM87.8447 95.5703H73.5009V93.7305H87.8447V95.5703ZM75.7509 94.293H73.5009V90.3086H75.7509V94.293ZM78.1298 88.1289H75.9267V85.1875H78.1298V88.1289ZM70.4306 87.332C72.9541 87.332 75.3095 87.2852 77.497 87.1914C79.6923 87.0898 81.7509 86.8906 83.6728 86.5938L83.8603 88.1523C81.9931 88.5117 80.0517 88.7539 78.0361 88.8789C76.0283 88.9961 73.7705 89.0703 71.2626 89.1016C71.1376 89.1016 71.04 89.1016 70.9697 89.1016C70.8994 89.1016 70.8017 89.1016 70.6767 89.1016L70.4306 87.332ZM83.0751 78.5781H70.958V76.9375H83.0751V78.5781ZM77.0048 79.375C78.0048 79.375 78.8798 79.5039 79.6298 79.7617C80.3876 80.0117 80.9736 80.3867 81.3876 80.8867C81.8017 81.3789 82.0126 81.9609 82.0205 82.6328C82.0126 83.2812 81.8017 83.8477 81.3876 84.332C80.9736 84.8164 80.3876 85.1914 79.6298 85.457C78.8798 85.7148 78.0048 85.8438 77.0048 85.8438C76.0048 85.8438 75.1298 85.7109 74.3798 85.4453C73.6298 85.1797 73.0478 84.8086 72.6337 84.332C72.2197 83.8555 72.0126 83.2891 72.0126 82.6328C72.0126 81.9609 72.2197 81.3789 72.6337 80.8867C73.0478 80.3867 73.6298 80.0117 74.3798 79.7617C75.1298 79.5039 76.0048 79.375 77.0048 79.375ZM77.0048 80.9219C76.4111 80.9219 75.8994 80.9883 75.4697 81.1211C75.04 81.2461 74.708 81.4414 74.4736 81.707C74.247 81.9648 74.1337 82.2734 74.1337 82.6328C74.1337 82.9688 74.247 83.2617 74.4736 83.5117C74.708 83.7617 75.04 83.957 75.4697 84.0977C75.9072 84.2305 76.4189 84.2969 77.0048 84.2969C77.5908 84.2969 78.0986 84.2305 78.5283 84.0977C78.9658 83.957 79.3017 83.7617 79.5361 83.5117C79.7705 83.2617 79.8876 82.9688 79.8876 82.6328C79.8876 82.2734 79.7744 81.9648 79.5478 81.707C79.3212 81.4414 78.9892 81.2461 78.5517 81.1211C78.1142 80.9883 77.5986 80.9219 77.0048 80.9219ZM78.1298 77.6875H75.9267V74.9219H78.1298V77.6875ZM107.034 79.7266H100.659V77.9336H107.034V79.7266ZM107.034 84.543H100.659V82.7383H107.034V84.543ZM96.8859 76.2109C97.9172 76.2109 98.8469 76.4219 99.675 76.8438C100.511 77.2656 101.163 77.8633 101.632 78.6367C102.109 79.4023 102.351 80.2734 102.359 81.25C102.351 82.2109 102.109 83.0703 101.632 83.8281C101.163 84.5859 100.511 85.1836 99.675 85.6211C98.8391 86.0508 97.9094 86.2656 96.8859 86.2656C95.8391 86.2656 94.8976 86.0508 94.0617 85.6211C93.2336 85.1836 92.5773 84.5859 92.093 83.8281C91.6164 83.0703 91.3781 82.2109 91.3781 81.25C91.3781 80.2734 91.6164 79.4023 92.093 78.6367C92.5773 77.8633 93.2336 77.2656 94.0617 76.8438C94.8976 76.4219 95.8391 76.2109 96.8859 76.2109ZM96.8859 78.1211C96.2297 78.1211 95.6437 78.25 95.1281 78.5078C94.6203 78.7656 94.2219 79.1328 93.9328 79.6094C93.6437 80.0859 93.4992 80.6328 93.4992 81.25C93.4992 81.8516 93.6437 82.3906 93.9328 82.8672C94.2219 83.3438 94.6203 83.7148 95.1281 83.9805C95.6437 84.2461 96.2297 84.3789 96.8859 84.3789C97.5187 84.3789 98.0891 84.2461 98.5969 83.9805C99.1047 83.7148 99.5031 83.3438 99.7922 82.8672C100.081 82.3906 100.226 81.8516 100.226 81.25C100.226 80.6328 100.081 80.0859 99.7922 79.6094C99.5031 79.1328 99.1047 78.7656 98.5969 78.5078C98.0891 78.25 97.5187 78.1211 96.8859 78.1211ZM108.581 87.3789H106.355V74.9805H108.581V87.3789ZM101.538 87.8594C102.999 87.8594 104.261 88.0195 105.323 88.3398C106.394 88.6523 107.214 89.1133 107.784 89.7227C108.362 90.332 108.652 91.0586 108.652 91.9023C108.652 92.7461 108.362 93.4727 107.784 94.082C107.214 94.6914 106.394 95.1562 105.323 95.4766C104.261 95.7969 102.999 95.957 101.538 95.957C100.085 95.957 98.8234 95.7969 97.7531 95.4766C96.6906 95.1562 95.8742 94.6914 95.3039 94.082C94.7336 93.4727 94.4484 92.7461 94.4484 91.9023C94.4484 91.0586 94.7336 90.332 95.3039 89.7227C95.8742 89.1133 96.6906 88.6523 97.7531 88.3398C98.8234 88.0195 100.085 87.8594 101.538 87.8594ZM101.538 89.5703C100.515 89.5703 99.632 89.6641 98.8898 89.8516C98.1555 90.0312 97.593 90.2969 97.2023 90.6484C96.8117 90.9922 96.6203 91.4102 96.6281 91.9023C96.6203 92.3789 96.8117 92.7891 97.2023 93.1328C97.6008 93.4766 98.1672 93.7422 98.9016 93.9297C99.6359 94.1094 100.515 94.1992 101.538 94.1992C102.57 94.1992 103.456 94.1094 104.198 93.9297C104.941 93.7422 105.503 93.4766 105.886 93.1328C106.277 92.7891 106.472 92.3789 106.472 91.9023C106.472 91.4102 106.277 90.9922 105.886 90.6484C105.503 90.2969 104.941 90.0312 104.198 89.8516C103.456 89.6641 102.57 89.5703 101.538 89.5703ZM128.076 87.2266H125.861V74.9805H128.076V87.2266ZM131.134 82.1406H127.15V80.2656H131.134V82.1406ZM116.849 90.1328H125.861V88.1055H128.076V95.7227H114.634V88.1055H116.849V90.1328ZM125.861 93.9531V91.8672H116.849V93.9531H125.861ZM124.103 78.8477H111.599V77.043H124.103V78.8477ZM117.857 79.6797C118.865 79.6797 119.751 79.832 120.517 80.1367C121.283 80.4414 121.876 80.875 122.298 81.4375C122.728 81.9922 122.947 82.6406 122.955 83.3828C122.947 84.125 122.728 84.7773 122.298 85.3398C121.876 85.8945 121.279 86.3242 120.505 86.6289C119.74 86.9258 118.857 87.0742 117.857 87.0742C116.849 87.0742 115.958 86.9258 115.185 86.6289C114.412 86.3242 113.81 85.8945 113.38 85.3398C112.958 84.7773 112.747 84.125 112.747 83.3828C112.747 82.6406 112.958 81.9922 113.38 81.4375C113.81 80.875 114.412 80.4414 115.185 80.1367C115.958 79.832 116.849 79.6797 117.857 79.6797ZM117.857 81.3789C117.263 81.3711 116.744 81.4492 116.298 81.6133C115.861 81.7695 115.517 82.0039 115.267 82.3164C115.017 82.6211 114.892 82.9766 114.892 83.3828C114.892 83.7891 115.013 84.1484 115.255 84.4609C115.497 84.7656 115.841 85 116.287 85.1641C116.74 85.3281 117.263 85.4102 117.857 85.4102C118.443 85.4102 118.962 85.3281 119.415 85.1641C119.876 85 120.228 84.7656 120.47 84.4609C120.72 84.1484 120.849 83.7891 120.857 83.3828C120.849 82.9766 120.716 82.6211 120.458 82.3164C120.208 82.0039 119.857 81.7695 119.404 81.6133C118.958 81.4492 118.443 81.3711 117.857 81.3789ZM118.97 78.0391H116.755V74.8047H118.97V78.0391ZM149.504 95.9805H147.3V74.9805H149.504V95.9805ZM135.558 90.0508H133.367V77.0312H135.558V90.0508ZM135.125 88.7383C136.843 88.7383 138.535 88.6641 140.199 88.5156C141.871 88.3594 143.55 88.1055 145.238 87.7539L145.531 89.6289C143.757 89.9961 142.019 90.2578 140.316 90.4141C138.621 90.5703 136.89 90.6484 135.125 90.6484H133.367V88.7383H135.125ZM168.939 96.0391H166.725V74.9805H168.939V96.0391ZM172.326 84.9648H168.435V83.125H172.326V84.9648ZM155.17 88.9727C157.178 88.9648 158.916 88.9102 160.385 88.8086C161.853 88.707 163.346 88.5195 164.861 88.2461L165.131 90.1445C163.584 90.418 162.064 90.6016 160.572 90.6953C159.088 90.7812 157.287 90.8242 155.17 90.8242H153.471V88.9727H155.17ZM163.291 78.8242H155.685V89.8398H153.471V76.9961H163.291V78.8242ZM175.473 94.1641C175.168 94.1641 174.887 94.0898 174.629 93.9414C174.379 93.7852 174.18 93.582 174.031 93.332C173.883 93.0742 173.813 92.793 173.82 92.4883C173.813 92.1914 173.883 91.918 174.031 91.668C174.18 91.4102 174.379 91.2109 174.629 91.0703C174.887 90.9219 175.168 90.8477 175.473 90.8477C175.77 90.8477 176.043 90.9219 176.293 91.0703C176.551 91.2109 176.754 91.4102 176.902 91.668C177.051 91.9258 177.125 92.1992 177.125 92.4883C177.125 92.793 177.051 93.0742 176.902 93.332C176.754 93.582 176.551 93.7852 176.293 93.9414C176.043 94.0898 175.77 94.1641 175.473 94.1641ZM192.606 91.082H190.38V87.625H192.606V91.082ZM201.876 95.9805H199.661V74.9805H201.876V95.9805ZM185.481 90.2734C188.09 90.25 190.419 90.1992 192.465 90.1211C194.52 90.0352 196.481 89.8711 198.348 89.6289L198.512 91.3047C196.442 91.6484 194.297 91.875 192.079 91.9844C189.868 92.0859 187.489 92.1367 184.942 92.1367L184.614 90.2734H185.481ZM197.891 79.2812H185.059V77.5H197.891V79.2812ZM191.458 80.3594C192.473 80.3594 193.372 80.5195 194.153 80.8398C194.942 81.1523 195.547 81.6094 195.969 82.2109C196.399 82.8047 196.614 83.4922 196.614 84.2734C196.614 85.0391 196.399 85.7188 195.969 86.3125C195.547 86.8984 194.942 87.3516 194.153 87.6719C193.372 87.9922 192.473 88.1523 191.458 88.1523C190.458 88.1523 189.571 87.9922 188.797 87.6719C188.024 87.3516 187.422 86.8984 186.993 86.3125C186.571 85.7188 186.36 85.0391 186.36 84.2734C186.36 83.4922 186.571 82.8047 186.993 82.2109C187.422 81.6094 188.024 81.1523 188.797 80.8398C189.571 80.5195 190.458 80.3594 191.458 80.3594ZM191.458 82.0586C190.872 82.0586 190.352 82.1523 189.899 82.3398C189.446 82.5195 189.09 82.7773 188.833 83.1133C188.575 83.4492 188.446 83.8359 188.446 84.2734C188.446 84.7109 188.571 85.0898 188.821 85.4102C189.079 85.7305 189.434 85.9805 189.887 86.1602C190.348 86.3398 190.872 86.4258 191.458 86.418C192.051 86.4258 192.579 86.3398 193.04 86.1602C193.501 85.9805 193.856 85.7305 194.106 85.4102C194.356 85.0898 194.481 84.7109 194.481 84.2734C194.481 83.8359 194.356 83.4492 194.106 83.1133C193.856 82.7773 193.501 82.5195 193.04 82.3398C192.579 82.1523 192.051 82.0586 191.458 82.0586ZM192.618 78.4727H190.38V75.0273H192.618V78.4727ZM213.12 90.2734H210.882V85.6094H213.12V90.2734ZM222.483 90.9297H220.257V75.0039H222.483V90.9297ZM222.987 95.5703H207.811V93.7305H222.987V95.5703ZM210.05 94.2461H207.811V89.3828H210.05V94.2461ZM204.905 84.6016C207.71 84.5781 210.186 84.5312 212.335 84.4609C214.491 84.3828 216.554 84.2188 218.522 83.9688L218.651 85.5742C216.612 85.9023 214.475 86.1211 212.241 86.2305C210.015 86.3398 207.667 86.3906 205.198 86.3828L204.905 84.6016ZM220.807 88.9258H216.015V87.3555H220.807V88.9258ZM211.784 75.8125C212.792 75.8125 213.694 75.9648 214.491 76.2695C215.288 76.5742 215.905 77.0078 216.343 77.5703C216.78 78.1328 216.999 78.7773 216.999 79.5039C216.999 80.2461 216.78 80.8906 216.343 81.4375C215.905 81.9844 215.288 82.4102 214.491 82.7148C213.702 83.0195 212.8 83.1719 211.784 83.1719C210.753 83.1719 209.843 83.0195 209.054 82.7148C208.265 82.4102 207.651 81.9844 207.214 81.4375C206.776 80.8906 206.557 80.2461 206.557 79.5039C206.557 78.7773 206.776 78.1328 207.214 77.5703C207.651 77 208.265 76.5664 209.054 76.2695C209.85 75.9648 210.761 75.8125 211.784 75.8125ZM211.784 77.4766C211.167 77.4688 210.624 77.5469 210.155 77.7109C209.686 77.875 209.319 78.1133 209.054 78.4258C208.796 78.7383 208.671 79.0977 208.679 79.5039C208.671 79.918 208.796 80.2773 209.054 80.582C209.319 80.8867 209.686 81.125 210.155 81.2969C210.624 81.4609 211.167 81.543 211.784 81.543C212.386 81.543 212.917 81.4609 213.378 81.2969C213.847 81.125 214.214 80.8867 214.479 80.582C214.745 80.2773 214.878 79.918 214.878 79.5039C214.878 79.0977 214.745 78.7383 214.479 78.4258C214.214 78.1133 213.847 77.875 213.378 77.7109C212.917 77.5469 212.386 77.4688 211.784 77.4766ZM241.872 95.9688H239.657V74.9805H241.872V95.9688ZM245.13 85.2227H241.298V83.3711H245.13V85.2227ZM236.376 77.207C236.368 79.3008 236.04 81.2617 235.392 83.0898C234.743 84.918 233.704 86.6016 232.275 88.1406C230.853 89.6797 229.021 91 226.778 92.1016L225.536 90.3672C227.458 89.4062 229.06 88.2891 230.341 87.0156C231.63 85.7422 232.591 84.3203 233.224 82.75C233.864 81.1797 234.189 79.4609 234.196 77.5938V77.207H236.376ZM235.321 79.0586H226.567V77.207H235.321V79.0586ZM263.429 86.2656H261.214V74.9805H263.429V86.2656ZM251.886 89.6172H261.226V87.2734H263.429V95.7227H249.683V87.2734H251.886V89.6172ZM261.226 93.918V91.375H251.886V93.918H261.226ZM252.038 75.9648C253.101 75.957 254.054 76.1602 254.898 76.5742C255.749 76.9805 256.417 77.5547 256.902 78.2969C257.386 79.0391 257.628 79.8867 257.628 80.8398C257.628 81.7773 257.386 82.6133 256.902 83.3477C256.417 84.082 255.749 84.6562 254.898 85.0703C254.054 85.4844 253.101 85.6914 252.038 85.6914C250.976 85.6914 250.019 85.4844 249.167 85.0703C248.324 84.6562 247.66 84.082 247.175 83.3477C246.691 82.6133 246.449 81.7773 246.449 80.8398C246.449 79.8867 246.691 79.0391 247.175 78.2969C247.66 77.5547 248.324 76.9805 249.167 76.5742C250.019 76.1602 250.976 75.957 252.038 75.9648ZM252.038 77.8281C251.374 77.8281 250.785 77.9531 250.269 78.2031C249.753 78.4531 249.347 78.8086 249.05 79.2695C248.761 79.7227 248.62 80.2461 248.628 80.8398C248.62 81.4336 248.761 81.957 249.05 82.4102C249.347 82.8633 249.753 83.2188 250.269 83.4766C250.785 83.7344 251.374 83.8633 252.038 83.8633C252.695 83.8633 253.281 83.7344 253.796 83.4766C254.312 83.2188 254.714 82.8633 255.003 82.4102C255.292 81.9492 255.437 81.4258 255.437 80.8398C255.437 80.2539 255.292 79.7305 255.003 79.2695C254.714 78.8086 254.312 78.4531 253.796 78.2031C253.281 77.9531 252.695 77.8281 252.038 77.8281ZM276.091 75.332C277.662 75.332 279.005 75.4727 280.123 75.7539C281.248 76.0273 282.103 76.4336 282.689 76.9727C283.283 77.5117 283.58 78.1641 283.58 78.9297C283.58 79.7188 283.283 80.3867 282.689 80.9336C282.103 81.4805 281.252 81.8945 280.134 82.1758C279.017 82.4492 277.67 82.5898 276.091 82.5977C274.505 82.5898 273.154 82.4492 272.037 82.1758C270.92 81.8945 270.06 81.4805 269.459 80.9336C268.865 80.3867 268.568 79.7188 268.568 78.9297C268.568 78.1641 268.865 77.5117 269.459 76.9727C270.06 76.4336 270.92 76.0273 272.037 75.7539C273.162 75.4727 274.513 75.332 276.091 75.332ZM276.091 76.9844C274.974 76.9844 274.029 77.0625 273.255 77.2188C272.482 77.375 271.892 77.5977 271.486 77.8867C271.087 78.1758 270.892 78.5234 270.9 78.9297C270.892 79.3672 271.087 79.7344 271.486 80.0312C271.892 80.3281 272.478 80.5508 273.244 80.6992C274.009 80.8477 274.959 80.9219 276.091 80.9219C277.216 80.9219 278.166 80.8477 278.939 80.6992C279.72 80.5508 280.306 80.332 280.697 80.043C281.095 79.7461 281.295 79.375 281.295 78.9297C281.295 78.5234 281.095 78.1758 280.697 77.8867C280.298 77.5977 279.709 77.375 278.927 77.2188C278.146 77.0625 277.201 76.9844 276.091 76.9844ZM285.666 85.6562H266.517V83.875H285.666V85.6562ZM283.24 92.1953H271.029V94.5273H268.837V90.5898H281.06V88.9375H268.802V87.2734H283.24V92.1953ZM283.849 95.7812H268.837V94.0586H283.849V95.7812ZM303.01 80.2656H292.592V78.4727H303.01V80.2656ZM297.818 81.5195C298.693 81.5195 299.479 81.7266 300.174 82.1406C300.869 82.5547 301.412 83.1289 301.803 83.8633C302.193 84.5977 302.389 85.4336 302.389 86.3711C302.389 87.3086 302.193 88.1445 301.803 88.8789C301.412 89.6133 300.869 90.1953 300.174 90.625C299.479 91.0469 298.693 91.2578 297.818 91.2578C296.951 91.2578 296.17 91.0469 295.475 90.625C294.779 90.1953 294.236 89.6133 293.846 88.8789C293.463 88.1445 293.272 87.3086 293.272 86.3711C293.272 85.4414 293.467 84.6094 293.857 83.875C294.256 83.1406 294.799 82.5664 295.486 82.1523C296.174 81.7305 296.951 81.5195 297.818 81.5195ZM297.818 83.3828C297.311 83.3906 296.861 83.5195 296.471 83.7695C296.088 84.0195 295.787 84.3711 295.568 84.8242C295.35 85.2773 295.24 85.793 295.24 86.3711C295.24 86.9492 295.35 87.4609 295.568 87.9062C295.787 88.3516 296.088 88.6992 296.471 88.9492C296.861 89.1992 297.307 89.3242 297.807 89.3242C298.315 89.3242 298.764 89.1992 299.154 88.9492C299.553 88.6992 299.865 88.3516 300.092 87.9062C300.318 87.4609 300.432 86.9492 300.432 86.3711C300.432 85.793 300.318 85.2773 300.092 84.8242C299.865 84.3711 299.553 84.0195 299.154 83.7695C298.756 83.5195 298.311 83.3906 297.818 83.3828ZM310.615 95.9805H308.494V74.9805H310.615V95.9805ZM309.197 85.5508H305.354V83.7344H309.197V85.5508ZM306.08 94.9961H303.982V75.4727H306.08V94.9961ZM298.932 79.5859H296.729V75.6016H298.932V79.5859ZM323.395 77.957C323.395 79.1758 323.024 80.293 322.282 81.3086C321.539 82.3164 320.535 83.1602 319.27 83.8398C318.004 84.5195 316.602 84.9805 315.063 85.2227L314.207 83.4766C315.52 83.2969 316.731 82.9336 317.84 82.3867C318.95 81.832 319.828 81.168 320.477 80.3945C321.125 79.6211 321.45 78.8086 321.45 77.957V77.1484H323.395V77.957ZM323.981 77.957C323.981 78.8086 324.301 79.6211 324.942 80.3945C325.59 81.168 326.469 81.832 327.578 82.3867C328.688 82.9336 329.903 83.2969 331.223 83.4766L330.414 85.2227C328.86 84.9805 327.446 84.5195 326.172 83.8398C324.907 83.1602 323.903 82.3164 323.16 81.3086C322.418 80.293 322.047 79.1758 322.047 77.957V77.1484H323.981V77.957ZM323.77 95.9922H321.578V88.0586H323.77V95.9922ZM332.289 88.6445H313.141V86.8281H332.289V88.6445ZM330.496 78.0156H314.91V76.2344H330.496V78.0156ZM345.924 84.2266H341.987V82.3633H345.924V84.2266ZM339.631 80.8164C339.631 82.332 339.44 83.7891 339.057 85.1875C338.682 86.5859 338.124 87.8438 337.381 88.9609C336.647 90.0703 335.768 90.9375 334.745 91.5625L333.35 89.8984C334.311 89.3281 335.135 88.5625 335.823 87.6016C336.51 86.6328 337.026 85.5664 337.37 84.4023C337.721 83.2383 337.897 82.043 337.897 80.8164V76.9023H339.631V80.8164ZM340.042 80.7227C340.042 81.8945 340.202 83.0312 340.522 84.1328C340.842 85.2344 341.319 86.2461 341.952 87.168C342.585 88.0898 343.354 88.8281 344.26 89.3828L343.018 91.0938C342.003 90.4844 341.143 89.6367 340.44 88.5508C339.737 87.457 339.213 86.2422 338.87 84.9062C338.526 83.5703 338.358 82.1758 338.366 80.7227V76.9023H340.042V80.7227ZM351.713 95.9805H349.569V74.9805H351.713V95.9805ZM347.354 94.9492H345.256V75.3789H347.354V94.9492ZM360.942 91.9258H358.751V85.7734H360.942V91.9258ZM368.77 91.9258H366.532V85.7734H368.77V91.9258ZM373.364 93.3672H354.145V91.5273H373.364V93.3672ZM363.72 76.1992C365.212 76.207 366.544 76.4375 367.716 76.8906C368.895 77.3438 369.813 77.9883 370.47 78.8242C371.134 79.6523 371.466 80.6055 371.466 81.6836C371.466 82.7773 371.134 83.7344 370.47 84.5547C369.813 85.375 368.895 86.0156 367.716 86.4766C366.544 86.9297 365.212 87.1562 363.72 87.1562C362.22 87.1562 360.884 86.9297 359.712 86.4766C358.54 86.0156 357.622 85.375 356.958 84.5547C356.294 83.7344 355.962 82.7773 355.962 81.6836C355.962 80.6055 356.294 79.6523 356.958 78.8242C357.622 77.9883 358.54 77.3438 359.712 76.8906C360.884 76.4375 362.22 76.207 363.72 76.1992ZM363.72 78.0039C362.618 77.9961 361.645 78.1445 360.802 78.4492C359.958 78.7461 359.302 79.1758 358.833 79.7383C358.372 80.293 358.141 80.9414 358.141 81.6836C358.141 82.4258 358.372 83.0781 358.833 83.6406C359.302 84.2031 359.958 84.6406 360.802 84.9531C361.653 85.2578 362.626 85.4141 363.72 85.4219C364.805 85.4141 365.77 85.2578 366.614 84.9531C367.458 84.6406 368.114 84.2031 368.583 83.6406C369.059 83.0781 369.298 82.4258 369.298 81.6836C369.298 80.9414 369.059 80.293 368.583 79.7383C368.114 79.1758 367.458 78.7461 366.614 78.4492C365.77 78.1445 364.805 77.9961 363.72 78.0039ZM377.038 94.1641C376.733 94.1641 376.452 94.0898 376.194 93.9414C375.944 93.7852 375.745 93.582 375.597 93.332C375.448 93.0742 375.378 92.793 375.386 92.4883C375.378 92.1914 375.448 91.918 375.597 91.668C375.745 91.4102 375.944 91.2109 376.194 91.0703C376.452 90.9219 376.733 90.8477 377.038 90.8477C377.335 90.8477 377.608 90.9219 377.858 91.0703C378.116 91.2109 378.319 91.4102 378.468 91.668C378.616 91.9258 378.69 92.1992 378.69 92.4883C378.69 92.793 378.616 93.0742 378.468 93.332C378.319 93.582 378.116 93.7852 377.858 93.9414C377.608 94.0898 377.335 94.1641 377.038 94.1641Z" fill="#6B6B6B"/>
</svg>
