<svg width="290" height="101" viewBox="0 0 290 101" fill="none" xmlns="http://www.w3.org/2000/svg">
<path d="M47.8797 17.0625H55.5437L61.2391 40.7812H61.5437L67.7547 17.0625H74.4109L80.6453 40.8516H80.9266L86.6219 17.0625H94.2859L84.6062 51H77.6922L71.2234 28.5938H70.9656L64.4734 51H57.5828L47.8797 17.0625ZM104.167 51.4922C101.589 51.4922 99.3469 50.9609 97.4406 49.8984C95.55 48.8359 94.0969 47.3203 93.0812 45.3516C92.0656 43.3828 91.5578 41.0703 91.5578 38.4141C91.5578 35.8047 92.0656 33.5 93.0812 31.5C94.1125 29.5 95.55 27.9531 97.3937 26.8594C99.2531 25.7656 101.417 25.2188 103.886 25.2188C106.167 25.2188 108.206 25.7031 110.003 26.6719C111.8 27.625 113.214 29.0703 114.245 31.0078C115.292 32.9453 115.816 35.3125 115.816 38.1094V40.0547H94.3937V35.7188H109.277C109.261 34.7031 109.027 33.7891 108.573 32.9766C108.136 32.1641 107.519 31.5312 106.722 31.0781C105.925 30.625 105.019 30.3984 104.003 30.3984C102.925 30.3984 101.964 30.6484 101.12 31.1484C100.277 31.6328 99.6125 32.3047 99.1281 33.1641C98.6594 34.0234 98.4172 34.9609 98.4016 35.9766V40.0547C98.4016 41.3359 98.6437 42.4453 99.1281 43.3828C99.6281 44.3047 100.316 45.0234 101.191 45.5391C102.066 46.0547 103.089 46.3125 104.261 46.3125C105.042 46.2969 105.753 46.1797 106.394 45.9609C107.034 45.7422 107.573 45.4531 108.011 45.0938C108.448 44.7188 108.792 44.2812 109.042 43.7812H115.652C115.308 45.3438 114.628 46.7031 113.612 47.8594C112.597 49.0156 111.284 49.9141 109.675 50.5547C108.066 51.1797 106.23 51.4922 104.167 51.4922ZM124.712 51H117.775V17.0625H124.712V51ZM139.164 51.4922C136.602 51.4922 134.375 50.9453 132.484 49.8516C130.594 48.7422 129.148 47.1953 128.148 45.2109C127.148 43.2266 126.648 40.9453 126.648 38.3672C126.648 35.7734 127.156 33.4844 128.172 31.5C129.188 29.5156 130.633 27.9766 132.508 26.8828C134.383 25.7734 136.586 25.2188 139.117 25.2188C141.289 25.2188 143.219 25.6172 144.906 26.4141C146.594 27.1953 147.914 28.3203 148.867 29.7891C149.836 31.2578 150.367 32.9531 150.461 34.875H143.898C143.773 34.0312 143.508 33.2891 143.102 32.6484C142.695 32.0078 142.156 31.5156 141.484 31.1719C140.828 30.8125 140.078 30.625 139.234 30.6094C138.125 30.625 137.156 30.9297 136.328 31.5234C135.5 32.1172 134.852 32.9922 134.383 34.1484C133.914 35.2891 133.68 36.6562 133.68 38.25C133.68 39.875 133.906 41.2656 134.359 42.4219C134.828 43.5625 135.477 44.4453 136.305 45.0703C137.133 45.6797 138.109 45.9766 139.234 45.9609C140.047 45.9766 140.781 45.8203 141.438 45.4922C142.094 45.1484 142.633 44.6641 143.055 44.0391C143.492 43.4141 143.773 42.6484 143.898 41.7422H150.461C150.352 43.6797 149.82 45.3828 148.867 46.8516C147.93 48.3203 146.625 49.4609 144.953 50.2734C143.281 51.0859 141.352 51.4922 139.164 51.4922ZM163.811 51.4922C161.264 51.4922 159.045 50.9453 157.155 49.8516C155.28 48.7578 153.834 47.2266 152.819 45.2578C151.803 43.2734 151.295 40.9766 151.295 38.3672C151.295 35.7422 151.803 33.4453 152.819 31.4766C153.834 29.4922 155.28 27.9531 157.155 26.8594C159.045 25.7656 161.264 25.2188 163.811 25.2188C166.327 25.2188 168.53 25.7656 170.42 26.8594C172.327 27.9531 173.78 29.4922 174.78 31.4766C175.78 33.4453 176.28 35.7422 176.28 38.3672C176.28 40.9766 175.78 43.2734 174.78 45.2578C173.78 47.2266 172.327 48.7578 170.42 49.8516C168.53 50.9453 166.327 51.4922 163.811 51.4922ZM163.858 46.125C164.998 46.125 165.975 45.7891 166.788 45.1172C167.6 44.4453 168.209 43.5234 168.616 42.3516C169.022 41.1641 169.225 39.8203 169.225 38.3203C169.225 36.8047 169.022 35.4609 168.616 34.2891C168.209 33.1172 167.6 32.1953 166.788 31.5234C165.975 30.8516 164.998 30.5156 163.858 30.5156C162.67 30.5156 161.663 30.8516 160.834 31.5234C160.006 32.1953 159.381 33.1172 158.959 34.2891C158.553 35.4609 158.342 36.8047 158.327 38.3203C158.342 39.8203 158.553 41.1641 158.959 42.3516C159.381 43.5234 160.006 44.4453 160.834 45.1172C161.663 45.7891 162.67 46.125 163.858 46.125ZM178.262 25.5469H184.872V30H185.153C185.684 28.5 186.567 27.3281 187.802 26.4844C189.052 25.6406 190.536 25.2188 192.255 25.2188C193.395 25.2188 194.434 25.4141 195.372 25.8047C196.325 26.1797 197.122 26.7266 197.762 27.4453C198.403 28.1641 198.872 29.0156 199.169 30H199.403C199.762 29.0469 200.309 28.2109 201.044 27.4922C201.778 26.7578 202.661 26.1953 203.692 25.8047C204.723 25.4141 205.856 25.2188 207.091 25.2188C208.669 25.2188 210.067 25.5625 211.286 26.25C212.505 26.9219 213.45 27.9141 214.122 29.2266C214.794 30.5391 215.13 32.1016 215.13 33.9141V51H208.169V35.2266C208.169 33.8359 207.802 32.7812 207.067 32.0625C206.348 31.3281 205.387 30.9609 204.184 30.9609C203.325 30.9609 202.591 31.1484 201.981 31.5234C201.372 31.8828 200.895 32.3984 200.552 33.0703C200.223 33.7422 200.052 34.5234 200.036 35.4141V51H193.309V35.0391C193.309 34.2266 193.145 33.5078 192.817 32.8828C192.505 32.2578 192.052 31.7812 191.458 31.4531C190.864 31.125 190.177 30.9609 189.395 30.9609C188.614 30.9609 187.903 31.1562 187.262 31.5469C186.637 31.9219 186.137 32.4766 185.762 33.2109C185.387 33.9297 185.2 34.7578 185.2 35.6953V51H178.262V25.5469ZM229.605 51.4922C227.027 51.4922 224.784 50.9609 222.878 49.8984C220.988 48.8359 219.534 47.3203 218.519 45.3516C217.503 43.3828 216.995 41.0703 216.995 38.4141C216.995 35.8047 217.503 33.5 218.519 31.5C219.55 29.5 220.988 27.9531 222.831 26.8594C224.691 25.7656 226.855 25.2188 229.323 25.2188C231.605 25.2188 233.644 25.7031 235.441 26.6719C237.238 27.625 238.652 29.0703 239.683 31.0078C240.73 32.9453 241.253 35.3125 241.253 38.1094V40.0547H219.831V35.7188H234.714C234.698 34.7031 234.464 33.7891 234.011 32.9766C233.573 32.1641 232.956 31.5312 232.159 31.0781C231.363 30.625 230.456 30.3984 229.441 30.3984C228.363 30.3984 227.402 30.6484 226.558 31.1484C225.714 31.6328 225.05 32.3047 224.566 33.1641C224.097 34.0234 223.855 34.9609 223.839 35.9766V40.0547C223.839 41.3359 224.081 42.4453 224.566 43.3828C225.066 44.3047 225.753 45.0234 226.628 45.5391C227.503 46.0547 228.527 46.3125 229.698 46.3125C230.48 46.2969 231.191 46.1797 231.831 45.9609C232.472 45.7422 233.011 45.4531 233.448 45.0938C233.886 44.7188 234.23 44.2812 234.48 43.7812H241.089C240.745 45.3438 240.066 46.7031 239.05 47.8594C238.034 49.0156 236.722 49.9141 235.113 50.5547C233.503 51.1797 231.667 51.4922 229.605 51.4922Z" fill="black"/>
<path d="M17.3575 91.4102H15.1192V74.9805H17.3575V91.4102ZM20.3458 84.0508H16.4786V82.1992H20.3458V84.0508ZM18.0958 95.5703H3.75203V93.7305H18.0958V95.5703ZM6.00203 94.293H3.75203V90.3086H6.00203V94.293ZM8.38094 88.1289H6.17781V85.1875H8.38094V88.1289ZM0.681717 87.332C3.20515 87.332 5.56062 87.2852 7.74812 87.1914C9.94344 87.0898 12.002 86.8906 13.9239 86.5938L14.1114 88.1523C12.2442 88.5117 10.3028 88.7539 8.28719 88.8789C6.27937 88.9961 4.02156 89.0703 1.51375 89.1016C1.38875 89.1016 1.29109 89.1016 1.22078 89.1016C1.15047 89.1016 1.05281 89.1016 0.927811 89.1016L0.681717 87.332ZM13.3262 78.5781H1.20906V76.9375H13.3262V78.5781ZM7.25594 79.375C8.25594 79.375 9.13094 79.5039 9.88094 79.7617C10.6387 80.0117 11.2247 80.3867 11.6387 80.8867C12.0528 81.3789 12.2637 81.9609 12.2716 82.6328C12.2637 83.2812 12.0528 83.8477 11.6387 84.332C11.2247 84.8164 10.6387 85.1914 9.88094 85.457C9.13094 85.7148 8.25594 85.8438 7.25594 85.8438C6.25594 85.8438 5.38094 85.7109 4.63094 85.4453C3.88094 85.1797 3.2989 84.8086 2.88484 84.332C2.47078 83.8555 2.26375 83.2891 2.26375 82.6328C2.26375 81.9609 2.47078 81.3789 2.88484 80.8867C3.2989 80.3867 3.88094 80.0117 4.63094 79.7617C5.38094 79.5039 6.25594 79.375 7.25594 79.375ZM7.25594 80.9219C6.66219 80.9219 6.15047 80.9883 5.72078 81.1211C5.29109 81.2461 4.95906 81.4414 4.72469 81.707C4.49812 81.9648 4.38484 82.2734 4.38484 82.6328C4.38484 82.9688 4.49812 83.2617 4.72469 83.5117C4.95906 83.7617 5.29109 83.957 5.72078 84.0977C6.15828 84.2305 6.67 84.2969 7.25594 84.2969C7.84187 84.2969 8.34969 84.2305 8.77937 84.0977C9.21687 83.957 9.55281 83.7617 9.78719 83.5117C10.0216 83.2617 10.1387 82.9688 10.1387 82.6328C10.1387 82.2734 10.0255 81.9648 9.7989 81.707C9.57234 81.4414 9.24031 81.2461 8.80281 81.1211C8.36531 80.9883 7.84969 80.9219 7.25594 80.9219ZM8.38094 77.6875H6.17781V74.9219H8.38094V77.6875ZM37.2855 79.7266H30.9105V77.9336H37.2855V79.7266ZM37.2855 84.543H30.9105V82.7383H37.2855V84.543ZM27.137 76.2109C28.1683 76.2109 29.098 76.4219 29.9261 76.8438C30.762 77.2656 31.4144 77.8633 31.8831 78.6367C32.3597 79.4023 32.6019 80.2734 32.6097 81.25C32.6019 82.2109 32.3597 83.0703 31.8831 83.8281C31.4144 84.5859 30.762 85.1836 29.9261 85.6211C29.0902 86.0508 28.1605 86.2656 27.137 86.2656C26.0902 86.2656 25.1487 86.0508 24.3128 85.6211C23.4847 85.1836 22.8284 84.5859 22.3441 83.8281C21.8675 83.0703 21.6292 82.2109 21.6292 81.25C21.6292 80.2734 21.8675 79.4023 22.3441 78.6367C22.8284 77.8633 23.4847 77.2656 24.3128 76.8438C25.1487 76.4219 26.0902 76.2109 27.137 76.2109ZM27.137 78.1211C26.4808 78.1211 25.8948 78.25 25.3792 78.5078C24.8714 78.7656 24.473 79.1328 24.1839 79.6094C23.8948 80.0859 23.7503 80.6328 23.7503 81.25C23.7503 81.8516 23.8948 82.3906 24.1839 82.8672C24.473 83.3438 24.8714 83.7148 25.3792 83.9805C25.8948 84.2461 26.4808 84.3789 27.137 84.3789C27.7698 84.3789 28.3402 84.2461 28.848 83.9805C29.3558 83.7148 29.7542 83.3438 30.0433 82.8672C30.3323 82.3906 30.4769 81.8516 30.4769 81.25C30.4769 80.6328 30.3323 80.0859 30.0433 79.6094C29.7542 79.1328 29.3558 78.7656 28.848 78.5078C28.3402 78.25 27.7698 78.1211 27.137 78.1211ZM38.8323 87.3789H36.6058V74.9805H38.8323V87.3789ZM31.7894 87.8594C33.2503 87.8594 34.512 88.0195 35.5745 88.3398C36.6448 88.6523 37.4652 89.1133 38.0355 89.7227C38.6136 90.332 38.9027 91.0586 38.9027 91.9023C38.9027 92.7461 38.6136 93.4727 38.0355 94.082C37.4652 94.6914 36.6448 95.1562 35.5745 95.4766C34.512 95.7969 33.2503 95.957 31.7894 95.957C30.3362 95.957 29.0745 95.7969 28.0042 95.4766C26.9417 95.1562 26.1253 94.6914 25.555 94.082C24.9847 93.4727 24.6995 92.7461 24.6995 91.9023C24.6995 91.0586 24.9847 90.332 25.555 89.7227C26.1253 89.1133 26.9417 88.6523 28.0042 88.3398C29.0745 88.0195 30.3362 87.8594 31.7894 87.8594ZM31.7894 89.5703C30.7659 89.5703 29.8831 89.6641 29.1409 89.8516C28.4066 90.0312 27.8441 90.2969 27.4534 90.6484C27.0628 90.9922 26.8714 91.4102 26.8792 91.9023C26.8714 92.3789 27.0628 92.7891 27.4534 93.1328C27.8519 93.4766 28.4183 93.7422 29.1527 93.9297C29.887 94.1094 30.7659 94.1992 31.7894 94.1992C32.8206 94.1992 33.7073 94.1094 34.4495 93.9297C35.1917 93.7422 35.7542 93.4766 36.137 93.1328C36.5277 92.7891 36.723 92.3789 36.723 91.9023C36.723 91.4102 36.5277 90.9922 36.137 90.6484C35.7542 90.2969 35.1917 90.0312 34.4495 89.8516C33.7073 89.6641 32.8206 89.5703 31.7894 89.5703ZM58.3267 87.2266H56.1119V74.9805H58.3267V87.2266ZM61.3853 82.1406H57.4009V80.2656H61.3853V82.1406ZM47.1002 90.1328H56.1119V88.1055H58.3267V95.7227H44.8853V88.1055H47.1002V90.1328ZM56.1119 93.9531V91.8672H47.1002V93.9531H56.1119ZM54.3541 78.8477H41.8502V77.043H54.3541V78.8477ZM48.108 79.6797C49.1158 79.6797 50.0025 79.832 50.7681 80.1367C51.5337 80.4414 52.1275 80.875 52.5494 81.4375C52.9791 81.9922 53.1978 82.6406 53.2056 83.3828C53.1978 84.125 52.9791 84.7773 52.5494 85.3398C52.1275 85.8945 51.5298 86.3242 50.7564 86.6289C49.9908 86.9258 49.108 87.0742 48.108 87.0742C47.1002 87.0742 46.2095 86.9258 45.4361 86.6289C44.6627 86.3242 44.0611 85.8945 43.6314 85.3398C43.2095 84.7773 42.9986 84.125 42.9986 83.3828C42.9986 82.6406 43.2095 81.9922 43.6314 81.4375C44.0611 80.875 44.6627 80.4414 45.4361 80.1367C46.2095 79.832 47.1002 79.6797 48.108 79.6797ZM48.108 81.3789C47.5142 81.3711 46.9947 81.4492 46.5494 81.6133C46.1119 81.7695 45.7681 82.0039 45.5181 82.3164C45.2681 82.6211 45.1431 82.9766 45.1431 83.3828C45.1431 83.7891 45.2642 84.1484 45.5064 84.4609C45.7486 84.7656 46.0923 85 46.5377 85.1641C46.9908 85.3281 47.5142 85.4102 48.108 85.4102C48.6939 85.4102 49.2134 85.3281 49.6666 85.1641C50.1275 85 50.4791 84.7656 50.7212 84.4609C50.9712 84.1484 51.1002 83.7891 51.108 83.3828C51.1002 82.9766 50.9673 82.6211 50.7095 82.3164C50.4595 82.0039 50.108 81.7695 49.6548 81.6133C49.2095 81.4492 48.6939 81.3711 48.108 81.3789ZM49.2212 78.0391H47.0064V74.8047H49.2212V78.0391ZM79.7547 95.9805H77.5516V74.9805H79.7547V95.9805ZM65.8094 90.0508H63.618V77.0312H65.8094V90.0508ZM65.3758 88.7383C67.0945 88.7383 68.7859 88.6641 70.45 88.5156C72.1219 88.3594 73.8016 88.1055 75.4891 87.7539L75.782 89.6289C74.0086 89.9961 72.2703 90.2578 70.5672 90.4141C68.8719 90.5703 67.1414 90.6484 65.3758 90.6484H63.618V88.7383H65.3758ZM99.1905 96.0391H96.9756V74.9805H99.1905V96.0391ZM102.577 84.9648H98.6866V83.125H102.577V84.9648ZM85.4209 88.9727C87.4287 88.9648 89.167 88.9102 90.6358 88.8086C92.1045 88.707 93.5967 88.5195 95.1123 88.2461L95.3819 90.1445C93.835 90.418 92.3155 90.6016 90.8233 90.6953C89.3389 90.7812 87.5381 90.8242 85.4209 90.8242H83.7217V88.9727H85.4209ZM93.542 78.8242H85.9366V89.8398H83.7217V76.9961H93.542V78.8242ZM105.724 94.1641C105.419 94.1641 105.138 94.0898 104.88 93.9414C104.63 93.7852 104.431 93.582 104.283 93.332C104.134 93.0742 104.064 92.793 104.072 92.4883C104.064 92.1914 104.134 91.918 104.283 91.668C104.431 91.4102 104.63 91.2109 104.88 91.0703C105.138 90.9219 105.419 90.8477 105.724 90.8477C106.021 90.8477 106.294 90.9219 106.544 91.0703C106.802 91.2109 107.005 91.4102 107.154 91.668C107.302 91.9258 107.376 92.1992 107.376 92.4883C107.376 92.793 107.302 93.0742 107.154 93.332C107.005 93.582 106.802 93.7852 106.544 93.9414C106.294 94.0898 106.021 94.1641 105.724 94.1641ZM133.978 93.4727H114.76V91.6328H133.978V93.4727ZM125.412 92.418H123.232V87.2969H125.412V92.418ZM131.623 83.0312H119.318V87.0625H117.103V81.25H129.431V78.2969H117.068V76.4805H131.623V83.0312ZM132.115 87.9297H117.103V86.1016H132.115V87.9297ZM150.883 78.9414H137.312V77.125H150.883V78.9414ZM154.41 93.0039H135.262V91.1758H154.41V93.0039ZM151.902 79.5039C151.902 80.6836 151.891 81.7227 151.867 82.6211C151.844 83.5195 151.773 84.5547 151.656 85.7266C151.539 86.8906 151.363 88.1602 151.129 89.5352L148.867 89.3242C149.125 88.043 149.312 86.8281 149.43 85.6797C149.547 84.5312 149.621 83.5039 149.652 82.5977C149.684 81.6914 149.699 80.6523 149.699 79.4805V79.3633V77.125H151.902V79.3633V79.5039ZM173.178 90.2734H170.963V75.0039H173.178V90.2734ZM173.811 95.5703H159.455V93.7305H173.811V95.5703ZM161.682 94.3984H159.455V88.7266H161.682V94.3984ZM161.787 76.4219C162.834 76.4219 163.783 76.6445 164.635 77.0898C165.487 77.5352 166.155 78.1523 166.639 78.9414C167.131 79.7305 167.377 80.625 167.377 81.625C167.377 82.6328 167.131 83.5352 166.639 84.332C166.155 85.1211 165.487 85.7383 164.635 86.1836C163.783 86.6289 162.834 86.8516 161.787 86.8516C160.74 86.8516 159.791 86.6289 158.94 86.1836C158.096 85.7383 157.428 85.1211 156.936 84.332C156.444 83.5352 156.197 82.6328 156.197 81.625C156.197 80.625 156.444 79.7305 156.936 78.9414C157.428 78.1523 158.096 77.5352 158.94 77.0898C159.791 76.6445 160.74 76.4219 161.787 76.4219ZM161.787 78.3672C161.139 78.3672 160.553 78.5039 160.03 78.7773C159.514 79.0508 159.108 79.4336 158.811 79.9258C158.514 80.418 158.369 80.9844 158.377 81.625C158.369 82.2734 158.514 82.8477 158.811 83.3477C159.108 83.8398 159.514 84.2227 160.03 84.4961C160.553 84.7695 161.139 84.9062 161.787 84.9062C162.428 84.9062 163.006 84.7695 163.522 84.4961C164.037 84.2227 164.444 83.8398 164.74 83.3477C165.037 82.8477 165.186 82.2734 165.186 81.625C165.186 80.9844 165.037 80.418 164.74 79.9258C164.444 79.4336 164.037 79.0508 163.522 78.7773C163.006 78.5039 162.428 78.3672 161.787 78.3672ZM185.84 75.332C187.411 75.332 188.754 75.4727 189.872 75.7539C190.997 76.0273 191.852 76.4336 192.438 76.9727C193.032 77.5117 193.329 78.1641 193.329 78.9297C193.329 79.7188 193.032 80.3867 192.438 80.9336C191.852 81.4805 191 81.8945 189.883 82.1758C188.766 82.4492 187.418 82.5898 185.84 82.5977C184.254 82.5898 182.903 82.4492 181.786 82.1758C180.668 81.8945 179.809 81.4805 179.208 80.9336C178.614 80.3867 178.317 79.7188 178.317 78.9297C178.317 78.1641 178.614 77.5117 179.208 76.9727C179.809 76.4336 180.668 76.0273 181.786 75.7539C182.911 75.4727 184.262 75.332 185.84 75.332ZM185.84 76.9844C184.723 76.9844 183.778 77.0625 183.004 77.2188C182.231 77.375 181.641 77.5977 181.235 77.8867C180.836 78.1758 180.641 78.5234 180.649 78.9297C180.641 79.3672 180.836 79.7344 181.235 80.0312C181.641 80.3281 182.227 80.5508 182.993 80.6992C183.758 80.8477 184.708 80.9219 185.84 80.9219C186.965 80.9219 187.915 80.8477 188.688 80.6992C189.469 80.5508 190.055 80.332 190.446 80.043C190.844 79.7461 191.043 79.375 191.043 78.9297C191.043 78.5234 190.844 78.1758 190.446 77.8867C190.047 77.5977 189.458 77.375 188.676 77.2188C187.895 77.0625 186.95 76.9844 185.84 76.9844ZM195.415 85.6562H176.266V83.875H195.415V85.6562ZM192.989 92.1953H180.778V94.5273H178.586V90.5898H190.809V88.9375H178.551V87.2734H192.989V92.1953ZM193.598 95.7812H178.586V94.0586H193.598V95.7812ZM212.759 80.2656H202.341V78.4727H212.759V80.2656ZM207.567 81.5195C208.442 81.5195 209.227 81.7266 209.923 82.1406C210.618 82.5547 211.161 83.1289 211.552 83.8633C211.942 84.5977 212.138 85.4336 212.138 86.3711C212.138 87.3086 211.942 88.1445 211.552 88.8789C211.161 89.6133 210.618 90.1953 209.923 90.625C209.227 91.0469 208.442 91.2578 207.567 91.2578C206.7 91.2578 205.919 91.0469 205.224 90.625C204.528 90.1953 203.985 89.6133 203.595 88.8789C203.212 88.1445 203.02 87.3086 203.02 86.3711C203.02 85.4414 203.216 84.6094 203.606 83.875C204.005 83.1406 204.548 82.5664 205.235 82.1523C205.923 81.7305 206.7 81.5195 207.567 81.5195ZM207.567 83.3828C207.06 83.3906 206.61 83.5195 206.22 83.7695C205.837 84.0195 205.536 84.3711 205.317 84.8242C205.099 85.2773 204.989 85.793 204.989 86.3711C204.989 86.9492 205.099 87.4609 205.317 87.9062C205.536 88.3516 205.837 88.6992 206.22 88.9492C206.61 89.1992 207.056 89.3242 207.556 89.3242C208.063 89.3242 208.513 89.1992 208.903 88.9492C209.302 88.6992 209.614 88.3516 209.841 87.9062C210.067 87.4609 210.181 86.9492 210.181 86.3711C210.181 85.793 210.067 85.2773 209.841 84.8242C209.614 84.3711 209.302 84.0195 208.903 83.7695C208.505 83.5195 208.06 83.3906 207.567 83.3828ZM220.364 95.9805H218.243V74.9805H220.364V95.9805ZM218.946 85.5508H215.102V83.7344H218.946V85.5508ZM215.829 94.9961H213.731V75.4727H215.829V94.9961ZM208.681 79.5859H206.477V75.6016H208.681V79.5859ZM233.144 77.957C233.144 79.1758 232.773 80.293 232.03 81.3086C231.288 82.3164 230.284 83.1602 229.019 83.8398C227.753 84.5195 226.351 84.9805 224.812 85.2227L223.956 83.4766C225.269 83.2969 226.48 82.9336 227.589 82.3867C228.698 81.832 229.577 81.168 230.226 80.3945C230.874 79.6211 231.198 78.8086 231.198 77.957V77.1484H233.144V77.957ZM233.73 77.957C233.73 78.8086 234.05 79.6211 234.691 80.3945C235.339 81.168 236.218 81.832 237.327 82.3867C238.437 82.9336 239.652 83.2969 240.972 83.4766L240.163 85.2227C238.609 84.9805 237.195 84.5195 235.921 83.8398C234.655 83.1602 233.652 82.3164 232.909 81.3086C232.167 80.293 231.796 79.1758 231.796 77.957V77.1484H233.73V77.957ZM233.519 95.9922H231.327V88.0586H233.519V95.9922ZM242.038 88.6445H222.89V86.8281H242.038V88.6445ZM240.245 78.0156H224.659V76.2344H240.245V78.0156ZM255.673 84.2266H251.736V82.3633H255.673V84.2266ZM249.38 80.8164C249.38 82.332 249.189 83.7891 248.806 85.1875C248.431 86.5859 247.872 87.8438 247.13 88.9609C246.396 90.0703 245.517 90.9375 244.494 91.5625L243.099 89.8984C244.06 89.3281 244.884 88.5625 245.572 87.6016C246.259 86.6328 246.775 85.5664 247.119 84.4023C247.47 83.2383 247.646 82.043 247.646 80.8164V76.9023H249.38V80.8164ZM249.79 80.7227C249.79 81.8945 249.951 83.0312 250.271 84.1328C250.591 85.2344 251.068 86.2461 251.701 87.168C252.333 88.0898 253.103 88.8281 254.009 89.3828L252.767 91.0938C251.751 90.4844 250.892 89.6367 250.189 88.5508C249.486 87.457 248.962 86.2422 248.619 84.9062C248.275 83.5703 248.107 82.1758 248.115 80.7227V76.9023H249.79V80.7227ZM261.462 95.9805H259.318V74.9805H261.462V95.9805ZM257.103 94.9492H255.005V75.3789H257.103V94.9492ZM270.691 91.9258H268.5V85.7734H270.691V91.9258ZM278.519 91.9258H276.281V85.7734H278.519V91.9258ZM283.113 93.3672H263.894V91.5273H283.113V93.3672ZM273.468 76.1992C274.961 76.207 276.293 76.4375 277.465 76.8906C278.644 77.3438 279.562 77.9883 280.218 78.8242C280.883 79.6523 281.215 80.6055 281.215 81.6836C281.215 82.7773 280.883 83.7344 280.218 84.5547C279.562 85.375 278.644 86.0156 277.465 86.4766C276.293 86.9297 274.961 87.1562 273.468 87.1562C271.968 87.1562 270.633 86.9297 269.461 86.4766C268.289 86.0156 267.371 85.375 266.707 84.5547C266.043 83.7344 265.711 82.7773 265.711 81.6836C265.711 80.6055 266.043 79.6523 266.707 78.8242C267.371 77.9883 268.289 77.3438 269.461 76.8906C270.633 76.4375 271.968 76.207 273.468 76.1992ZM273.468 78.0039C272.367 77.9961 271.394 78.1445 270.55 78.4492C269.707 78.7461 269.05 79.1758 268.582 79.7383C268.121 80.293 267.89 80.9414 267.89 81.6836C267.89 82.4258 268.121 83.0781 268.582 83.6406C269.05 84.2031 269.707 84.6406 270.55 84.9531C271.402 85.2578 272.375 85.4141 273.468 85.4219C274.554 85.4141 275.519 85.2578 276.363 84.9531C277.207 84.6406 277.863 84.2031 278.332 83.6406C278.808 83.0781 279.047 82.4258 279.047 81.6836C279.047 80.9414 278.808 80.293 278.332 79.7383C277.863 79.1758 277.207 78.7461 276.363 78.4492C275.519 78.1445 274.554 77.9961 273.468 78.0039ZM286.787 94.1641C286.482 94.1641 286.201 94.0898 285.943 93.9414C285.693 93.7852 285.494 93.582 285.346 93.332C285.197 93.0742 285.127 92.793 285.135 92.4883C285.127 92.1914 285.197 91.918 285.346 91.668C285.494 91.4102 285.693 91.2109 285.943 91.0703C286.201 90.9219 286.482 90.8477 286.787 90.8477C287.084 90.8477 287.357 90.9219 287.607 91.0703C287.865 91.2109 288.068 91.4102 288.217 91.668C288.365 91.9258 288.439 92.1992 288.439 92.4883C288.439 92.793 288.365 93.0742 288.217 93.332C288.068 93.582 287.865 93.7852 287.607 93.9414C287.357 94.0898 287.084 94.1641 286.787 94.1641Z" fill="#6B6B6B"/>
</svg>
