<svg width="24" height="24" viewBox="0 0 24 24" fill="none" xmlns="http://www.w3.org/2000/svg">
<path d="M23 7.375H11.75M11.75 7.375C11.75 9.23896 10.239 10.75 8.375 10.75C6.51104 10.75 5 9.23896 5 7.375M11.75 7.375C11.75 5.51104 10.239 4 8.375 4C6.51104 4 5 5.51104 5 7.375M12.25 16.625H1M12.25 16.625C12.25 18.489 13.761 20 15.625 20C17.489 20 19 18.489 19 16.625M12.25 16.625C12.25 14.761 13.761 13.25 15.625 13.25C17.489 13.25 19 14.761 19 16.625M19 16.625H23M5 7.375H1" stroke="#FC650D" stroke-width="2" stroke-linecap="round" stroke-linejoin="round"/>
</svg>
