<svg width="195" height="35" viewBox="0 0 195 35" fill="none" xmlns="http://www.w3.org/2000/svg">
<path d="M0.879684 0.0625H8.54375L14.2391 23.7812H14.5437L20.7547 0.0625H27.4109L33.6453 23.8516H33.9266L39.6219 0.0625H47.2859L37.6062 34H30.6922L24.2234 11.5938H23.9656L17.4734 34H10.5828L0.879684 0.0625ZM57.1672 34.4922C54.5891 34.4922 52.3469 33.9609 50.4406 32.8984C48.55 31.8359 47.0969 30.3203 46.0812 28.3516C45.0656 26.3828 44.5578 24.0703 44.5578 21.4141C44.5578 18.8047 45.0656 16.5 46.0812 14.5C47.1125 12.5 48.55 10.9531 50.3937 9.85938C52.2531 8.76562 54.4172 8.21875 56.8859 8.21875C59.1672 8.21875 61.2062 8.70312 63.0031 9.67188C64.8 10.625 66.2141 12.0703 67.2453 14.0078C68.2922 15.9453 68.8156 18.3125 68.8156 21.1094V23.0547H47.3937V18.7188H62.2766C62.2609 17.7031 62.0266 16.7891 61.5734 15.9766C61.1359 15.1641 60.5187 14.5312 59.7219 14.0781C58.925 13.625 58.0187 13.3984 57.0031 13.3984C55.925 13.3984 54.9641 13.6484 54.1203 14.1484C53.2766 14.6328 52.6125 15.3047 52.1281 16.1641C51.6594 17.0234 51.4172 17.9609 51.4016 18.9766V23.0547C51.4016 24.3359 51.6437 25.4453 52.1281 26.3828C52.6281 27.3047 53.3156 28.0234 54.1906 28.5391C55.0656 29.0547 56.0891 29.3125 57.2609 29.3125C58.0422 29.2969 58.7531 29.1797 59.3937 28.9609C60.0344 28.7422 60.5734 28.4531 61.0109 28.0938C61.4484 27.7188 61.7922 27.2812 62.0422 26.7812H68.6516C68.3078 28.3438 67.6281 29.7031 66.6125 30.8594C65.5969 32.0156 64.2844 32.9141 62.675 33.5547C61.0656 34.1797 59.2297 34.4922 57.1672 34.4922ZM77.7125 34H70.775V0.0625H77.7125V34ZM92.1641 34.4922C89.6016 34.4922 87.375 33.9453 85.4844 32.8516C83.5938 31.7422 82.1484 30.1953 81.1484 28.2109C80.1484 26.2266 79.6484 23.9453 79.6484 21.3672C79.6484 18.7734 80.1562 16.4844 81.1719 14.5C82.1875 12.5156 83.6328 10.9766 85.5078 9.88281C87.3828 8.77344 89.5859 8.21875 92.1172 8.21875C94.2891 8.21875 96.2188 8.61719 97.9062 9.41406C99.5938 10.1953 100.914 11.3203 101.867 12.7891C102.836 14.2578 103.367 15.9531 103.461 17.875H96.8984C96.7734 17.0312 96.5078 16.2891 96.1016 15.6484C95.6953 15.0078 95.1562 14.5156 94.4844 14.1719C93.8281 13.8125 93.0781 13.625 92.2344 13.6094C91.125 13.625 90.1562 13.9297 89.3281 14.5234C88.5 15.1172 87.8516 15.9922 87.3828 17.1484C86.9141 18.2891 86.6797 19.6562 86.6797 21.25C86.6797 22.875 86.9062 24.2656 87.3594 25.4219C87.8281 26.5625 88.4766 27.4453 89.3047 28.0703C90.1328 28.6797 91.1094 28.9766 92.2344 28.9609C93.0469 28.9766 93.7812 28.8203 94.4375 28.4922C95.0938 28.1484 95.6328 27.6641 96.0547 27.0391C96.4922 26.4141 96.7734 25.6484 96.8984 24.7422H103.461C103.352 26.6797 102.82 28.3828 101.867 29.8516C100.93 31.3203 99.625 32.4609 97.9531 33.2734C96.2812 34.0859 94.3516 34.4922 92.1641 34.4922ZM116.811 34.4922C114.264 34.4922 112.045 33.9453 110.155 32.8516C108.28 31.7578 106.834 30.2266 105.819 28.2578C104.803 26.2734 104.295 23.9766 104.295 21.3672C104.295 18.7422 104.803 16.4453 105.819 14.4766C106.834 12.4922 108.28 10.9531 110.155 9.85938C112.045 8.76562 114.264 8.21875 116.811 8.21875C119.327 8.21875 121.53 8.76562 123.42 9.85938C125.327 10.9531 126.78 12.4922 127.78 14.4766C128.78 16.4453 129.28 18.7422 129.28 21.3672C129.28 23.9766 128.78 26.2734 127.78 28.2578C126.78 30.2266 125.327 31.7578 123.42 32.8516C121.53 33.9453 119.327 34.4922 116.811 34.4922ZM116.858 29.125C117.998 29.125 118.975 28.7891 119.788 28.1172C120.6 27.4453 121.209 26.5234 121.616 25.3516C122.022 24.1641 122.225 22.8203 122.225 21.3203C122.225 19.8047 122.022 18.4609 121.616 17.2891C121.209 16.1172 120.6 15.1953 119.788 14.5234C118.975 13.8516 117.998 13.5156 116.858 13.5156C115.67 13.5156 114.663 13.8516 113.834 14.5234C113.006 15.1953 112.381 16.1172 111.959 17.2891C111.553 18.4609 111.342 19.8047 111.327 21.3203C111.342 22.8203 111.553 24.1641 111.959 25.3516C112.381 26.5234 113.006 27.4453 113.834 28.1172C114.663 28.7891 115.67 29.125 116.858 29.125ZM131.262 8.54688H137.872V13H138.153C138.684 11.5 139.567 10.3281 140.802 9.48438C142.052 8.64062 143.536 8.21875 145.255 8.21875C146.395 8.21875 147.434 8.41406 148.372 8.80469C149.325 9.17969 150.122 9.72656 150.762 10.4453C151.403 11.1641 151.872 12.0156 152.169 13H152.403C152.762 12.0469 153.309 11.2109 154.044 10.4922C154.778 9.75781 155.661 9.19531 156.692 8.80469C157.723 8.41406 158.856 8.21875 160.091 8.21875C161.669 8.21875 163.067 8.5625 164.286 9.25C165.505 9.92188 166.45 10.9141 167.122 12.2266C167.794 13.5391 168.13 15.1016 168.13 16.9141V34H161.169V18.2266C161.169 16.8359 160.802 15.7812 160.067 15.0625C159.348 14.3281 158.387 13.9609 157.184 13.9609C156.325 13.9609 155.591 14.1484 154.981 14.5234C154.372 14.8828 153.895 15.3984 153.552 16.0703C153.223 16.7422 153.052 17.5234 153.036 18.4141V34H146.309V18.0391C146.309 17.2266 146.145 16.5078 145.817 15.8828C145.505 15.2578 145.052 14.7812 144.458 14.4531C143.864 14.125 143.177 13.9609 142.395 13.9609C141.614 13.9609 140.903 14.1562 140.262 14.5469C139.637 14.9219 139.137 15.4766 138.762 16.2109C138.387 16.9297 138.2 17.7578 138.2 18.6953V34H131.262V8.54688ZM182.605 34.4922C180.027 34.4922 177.784 33.9609 175.878 32.8984C173.988 31.8359 172.534 30.3203 171.519 28.3516C170.503 26.3828 169.995 24.0703 169.995 21.4141C169.995 18.8047 170.503 16.5 171.519 14.5C172.55 12.5 173.988 10.9531 175.831 9.85938C177.691 8.76562 179.855 8.21875 182.323 8.21875C184.605 8.21875 186.644 8.70312 188.441 9.67188C190.238 10.625 191.652 12.0703 192.683 14.0078C193.73 15.9453 194.253 18.3125 194.253 21.1094V23.0547H172.831V18.7188H187.714C187.698 17.7031 187.464 16.7891 187.011 15.9766C186.573 15.1641 185.956 14.5312 185.159 14.0781C184.363 13.625 183.456 13.3984 182.441 13.3984C181.363 13.3984 180.402 13.6484 179.558 14.1484C178.714 14.6328 178.05 15.3047 177.566 16.1641C177.097 17.0234 176.855 17.9609 176.839 18.9766V23.0547C176.839 24.3359 177.081 25.4453 177.566 26.3828C178.066 27.3047 178.753 28.0234 179.628 28.5391C180.503 29.0547 181.527 29.3125 182.698 29.3125C183.48 29.2969 184.191 29.1797 184.831 28.9609C185.472 28.7422 186.011 28.4531 186.448 28.0938C186.886 27.7188 187.23 27.2812 187.48 26.7812H194.089C193.745 28.3438 193.066 29.7031 192.05 30.8594C191.034 32.0156 189.722 32.9141 188.113 33.5547C186.503 34.1797 184.667 34.4922 182.605 34.4922Z" fill="black"/>
</svg>
