<svg width="24" height="24" viewBox="0 0 24 24" fill="none" xmlns="http://www.w3.org/2000/svg">
<path d="M3 8C3 6.34315 4.34315 5 6 5H18C19.6569 5 21 6.34315 21 8V18C21 19.6569 19.6569 21 18 21H6C4.34315 21 3 19.6569 3 18V8Z" fill="#FC650D"/>
<path d="M3 10H21M8 3V7M16 3V7M6 21H18C19.6569 21 21 19.6569 21 18V8C21 6.34315 19.6569 5 18 5H6C4.34315 5 3 6.34315 3 8V18C3 19.6569 4.34315 21 6 21Z" stroke="#FC650D" stroke-width="2" stroke-linecap="round"/>
<path d="M3 10H21" stroke="white" stroke-width="2" stroke-linecap="square"/>
</svg>
