<svg width="24" height="24" viewBox="0 0 24 24" fill="none" xmlns="http://www.w3.org/2000/svg">
<path d="M4 19.9585H20C20.5304 19.9585 21.0391 19.7478 21.4142 19.3727C21.7893 18.9976 22 18.4889 22 17.9585V7.9585C22 7.42806 21.7893 6.91936 21.4142 6.54428C21.0391 6.16921 20.5304 5.9585 20 5.9585H12.07C11.7406 5.95679 11.4167 5.87375 11.1271 5.71674C10.8375 5.55973 10.5912 5.33362 10.41 5.0585L9.59 3.8585C9.40882 3.58337 9.1625 3.35726 8.8729 3.20026C8.58331 3.04325 8.25941 2.9602 7.93 2.9585H4C3.46957 2.9585 2.96086 3.16921 2.58579 3.54428C2.21071 3.91936 2 4.42806 2 4.9585V17.9585C2 19.0585 2.9 19.9585 4 19.9585Z" fill="#FC650D"/>
<path d="M2 9.9585H22H2Z" fill="#FC650D"/>
<path d="M2 9.9585H22M4 19.9585H20C20.5304 19.9585 21.0391 19.7478 21.4142 19.3727C21.7893 18.9976 22 18.4889 22 17.9585V7.9585C22 7.42806 21.7893 6.91936 21.4142 6.54428C21.0391 6.16921 20.5304 5.9585 20 5.9585H12.07C11.7406 5.95679 11.4167 5.87375 11.1271 5.71674C10.8375 5.55973 10.5912 5.33362 10.41 5.0585L9.59 3.8585C9.40882 3.58337 9.1625 3.35726 8.8729 3.20026C8.58331 3.04325 8.25941 2.9602 7.93 2.9585H4C3.46957 2.9585 2.96086 3.16921 2.58579 3.54428C2.21071 3.91936 2 4.42806 2 4.9585V17.9585C2 19.0585 2.9 19.9585 4 19.9585Z" stroke="#FC650D" stroke-width="2" stroke-linecap="round" stroke-linejoin="round"/>
<path d="M2 9.9585H22" stroke="white" stroke-width="2" stroke-linecap="square" stroke-linejoin="round"/>
</svg>
