<svg width="24" height="24" viewBox="0 0 24 24" fill="none" xmlns="http://www.w3.org/2000/svg">
<path d="M6.375 21H17.625C19.489 21 21 19.489 21 17.625V8.36397C21 7.34334 20.5381 6.37753 19.7437 5.73683L17.2773 3.74786C16.6773 3.26392 15.9296 3 15.1587 3L6.375 3C4.51104 3 3 4.51104 3 6.375L3 17.625C3 19.489 4.51104 21 6.375 21Z" stroke="white" stroke-width="2" stroke-linecap="round" stroke-linejoin="round"/>
<path d="M14.25 12C15.4926 12 16.5 13.0074 16.5 14.25V21H7.5V14.25C7.5 13.0074 8.50736 12 9.75 12H14.25Z" stroke="white" stroke-width="2" stroke-linecap="round" stroke-linejoin="round"/>
<path d="M13.125 3V6.375C13.125 6.99632 12.6213 7.5 12 7.5H8.625C8.00368 7.5 7.5 6.99632 7.5 6.375L7.5 3L13.125 3Z" stroke="white" stroke-width="2" stroke-linecap="round" stroke-linejoin="round"/>
</svg>
