<svg width="24" height="24" viewBox="0 0 24 24" fill="none" xmlns="http://www.w3.org/2000/svg">
<path d="M8 21H20C20.5304 21 21.0391 20.7893 21.4142 20.4142C21.7893 20.0391 22 19.5304 22 19V17H10V19C10 19.5304 9.78929 20.0391 9.41421 20.4142C9.03914 20.7893 8.53043 21 8 21ZM8 21C7.46957 21 6.96086 20.7893 6.58579 20.4142C6.21071 20.0391 6 19.5304 6 19V5C6 4.46957 5.78929 3.96086 5.41421 3.58579C5.03914 3.21071 4.53043 3 4 3M4 3C3.46957 3 2.96086 3.21071 2.58579 3.58579C2.21071 3.96086 2 4.46957 2 5V8H6M4 3H17C17.5304 3 18.0391 3.21071 18.4142 3.58579C18.7893 3.96086 19 4.46957 19 5V17M15 8H10M15 12H10" stroke="#FC650D" stroke-width="2" stroke-linecap="round" stroke-linejoin="round"/>
<path d="M10 17H19V5C19 4.46957 18.7893 3.96086 18.4142 3.58579C18.0391 3.21071 17.5304 3 17 3H4C4.53043 3 5.03914 3.21071 5.41421 3.58579C5.78929 3.96086 6 4.46957 6 5V8V19C6 19.5304 6.21071 20.0391 6.58579 20.4142C6.96086 20.7893 7.46957 21 8 21C8.53043 21 9.03914 20.7893 9.41421 20.4142C9.78929 20.0391 10 19.5304 10 19V17Z" fill="#FC650D"/>
<path d="M8 21H20C20.5304 21 21.0391 20.7893 21.4142 20.4142C21.7893 20.0391 22 19.5304 22 19V17H19H10V19C10 19.5304 9.78929 20.0391 9.41421 20.4142C9.03914 20.7893 8.53043 21 8 21Z" fill="#FC650D"/>
<path d="M6 8V5C6 4.46957 5.78929 3.96086 5.41421 3.58579C5.03914 3.21071 4.53043 3 4 3C3.46957 3 2.96086 3.21071 2.58579 3.58579C2.21071 3.96086 2 4.46957 2 5V8H6Z" fill="#FC650D"/>
<path d="M8 21H20C20.5304 21 21.0391 20.7893 21.4142 20.4142C21.7893 20.0391 22 19.5304 22 19V17M8 21C8.53043 21 9.03914 20.7893 9.41421 20.4142C9.78929 20.0391 10 19.5304 10 19V17M8 21C7.46957 21 6.96086 20.7893 6.58579 20.4142C6.21071 20.0391 6 19.5304 6 19M22 17H10M22 17H19M10 17H19M6 19V5M6 19V8M6 5C6 4.46957 5.78929 3.96086 5.41421 3.58579C5.03914 3.21071 4.53043 3 4 3M6 5V8M4 3C3.46957 3 2.96086 3.21071 2.58579 3.58579C2.21071 3.96086 2 4.46957 2 5V8H6M4 3H17C17.5304 3 18.0391 3.21071 18.4142 3.58579C18.7893 3.96086 19 4.46957 19 5V17M15 8H10M15 12H10" stroke="#FC650D" stroke-width="2" stroke-linecap="round" stroke-linejoin="round"/>
<path d="M8 21H20C20.5304 21 21.0391 20.7893 21.4142 20.4142C21.7893 20.0391 22 19.5304 22 19V17H19H10V19C10 19.5304 9.78929 20.0391 9.41421 20.4142C9.03914 20.7893 8.53043 21 8 21Z" fill="white"/>
<path d="M6 8V5C6 4.46957 5.78929 3.96086 5.41421 3.58579C5.03914 3.21071 4.53043 3 4 3C3.46957 3 2.96086 3.21071 2.58579 3.58579C2.21071 3.96086 2 4.46957 2 5V8H6Z" fill="white"/>
<path d="M8 21H20C20.5304 21 21.0391 20.7893 21.4142 20.4142C21.7893 20.0391 22 19.5304 22 19V17M8 21C8.53043 21 9.03914 20.7893 9.41421 20.4142C9.78929 20.0391 10 19.5304 10 19V17M8 21C7.46957 21 6.96086 20.7893 6.58579 20.4142C6.21071 20.0391 6 19.5304 6 19M22 17H10M22 17H19M10 17H19M6 19V5M6 19V8M6 5C6 4.46957 5.78929 3.96086 5.41421 3.58579C5.03914 3.21071 4.53043 3 4 3M6 5V8M4 3C3.46957 3 2.96086 3.21071 2.58579 3.58579C2.21071 3.96086 2 4.46957 2 5V8H6M4 3H17C17.5304 3 18.0391 3.21071 18.4142 3.58579C18.7893 3.96086 19 4.46957 19 5V17M15 8H10M15 12H10" stroke="#FC650D" stroke-width="2" stroke-linecap="round" stroke-linejoin="round"/>
<path d="M15 8H10M15 12H10" stroke="white" stroke-width="2" stroke-linecap="round" stroke-linejoin="round"/>
</svg>
