<svg width="26" height="26" viewBox="0 0 26 26" fill="none" xmlns="http://www.w3.org/2000/svg">
<path d="M22.2863 19.1905V6.80959C22.2863 5.10014 20.9005 3.71436 19.191 3.71436L6.81008 3.71436C5.10063 3.71436 3.71484 5.10014 3.71484 6.80959L3.71484 19.1905C3.71484 20.9 5.10063 22.2858 6.81008 22.2858H19.191C20.9005 22.2858 22.2863 20.9 22.2863 19.1905Z" fill="#FC650D"/>
<path d="M3.71484 7.84134L3.71484 10.9366M22.2863 7.84134V10.9366M22.2863 6.80959V19.1905C22.2863 20.9 20.9005 22.2858 19.191 22.2858H6.81008C5.10063 22.2858 3.71484 20.9 3.71484 19.1905L3.71484 6.80959C3.71484 5.10014 5.10063 3.71436 6.81008 3.71436L19.191 3.71436C20.9005 3.71436 22.2863 5.10014 22.2863 6.80959Z" stroke="#FC650D" stroke-width="1.85714" stroke-linecap="round" stroke-linejoin="round"/>
<path d="M9.90532 8.04736L3.71484 8.04736L3.71484 10.8331C3.71484 12.3716 5.10063 13.6188 6.81008 13.6188C8.51953 13.6188 9.90532 12.3716 9.90532 10.8331M9.90532 8.04736V10.8331M9.90532 8.04736L16.0958 8.04736M9.90532 10.8331C9.90532 12.3716 11.2911 13.6188 13.0006 13.6188C14.71 13.6188 16.0958 12.3716 16.0958 10.8331M16.0958 8.04736V10.8331M16.0958 8.04736H22.2863V10.8331C22.2863 12.3716 20.9005 13.6188 19.191 13.6188C17.4816 13.6188 16.0958 12.3716 16.0958 10.8331" stroke="white" stroke-width="1.85714" stroke-linecap="round"/>
</svg>
