<svg width="450" height="220" viewBox="0 0 450 220" fill="none" xmlns="http://www.w3.org/2000/svg">
<g clip-path="url(#clip0_533_13178)">
<rect width="450" height="220" fill="#F1F1F1"/>
<path d="M107.934 80.5079C110.666 80.186 113.453 79.9592 116.045 79.9469C118.106 79.9372 120.829 80.0472 123.546 80.7329L124.713 81.0684L125.991 81.5019C132.525 83.8535 140.904 88.912 146.533 97.539C152.663 106.936 154.561 119.105 149.6 132.928L148.517 135.716C147.594 137.915 146.496 140.022 145.269 142.057C147.794 141.693 150.304 141.282 152.779 140.774C177.971 135.609 195.027 124.056 198.403 103.31L198.74 100.893C199.212 96.7953 198.886 94.5915 198.633 93.6116C197.282 93.4414 194.607 93.5662 190.265 94.7676C186.898 95.6992 183.104 97.1078 179.002 98.9044L174.801 100.832C168.346 103.9 160.63 101.115 157.566 94.6111C154.502 88.1062 157.253 80.3465 163.708 77.2756L168.59 75.0402C173.507 72.8844 178.505 70.9904 183.356 69.6482C189.612 67.9172 196.804 66.756 203.666 68.0536C205.779 68.4532 207.838 69.1003 209.796 69.9862C213.231 67.6377 216.942 65.6812 220.668 64.166C227.631 61.3344 235.661 59.57 243.407 59.9935C251.086 60.4138 260.156 63.1668 266.199 71.2139C272.276 79.3094 272.987 89.7023 270.616 100.313L270.623 100.318C268.687 109.039 267.281 114.357 265.579 119.082C265.523 119.238 265.453 119.388 265.397 119.543C272.67 119.552 280.812 118.572 290.101 116.061L293.931 114.934C303.229 111.969 311.295 107.679 318.257 102.675C305.645 94.3819 295.968 84.1837 289.457 73.1357L288.372 71.2284C286.321 67.5125 286.197 63.027 288.039 59.2105C289.881 55.3941 293.459 52.7281 297.624 52.0628L364.689 41.346L365.485 41.2446C369.484 40.8595 373.459 42.3715 376.217 45.3602C379.156 48.5468 380.328 52.9962 379.34 57.2225C377.18 66.4558 371.87 79.9773 362.564 93.6866C387.651 99.9715 421.436 99.4751 464.468 84.9552C471.238 82.6718 478.579 86.351 480.863 93.1712C483.147 99.992 479.508 107.373 472.737 109.658C419.672 127.563 376.168 126.551 343.975 115.271C332.394 125.895 317.703 135.121 299.36 140.515L296.857 141.224C275.895 146.89 258.663 146.449 243.829 143.303C239.959 142.482 236.673 139.924 234.903 136.361C233.134 132.798 233.074 128.619 234.748 125.017L234.759 125.002L234.891 124.711C234.982 124.516 235.111 124.242 235.253 123.932C235.545 123.296 235.88 122.556 236.123 122.008L239.262 115.027C240.051 113.249 240.648 111.821 241.247 110.156C242.371 107.036 243.495 103.028 245.368 94.5861L245.371 94.5599L245.78 92.3947C246.071 90.4356 246.043 89.0706 245.928 88.197C245.854 87.6322 245.747 87.2907 245.679 87.1161C245.644 87.028 245.611 86.9741 245.593 86.9429C245.576 86.912 245.569 86.8935 245.566 86.8893C245.564 86.8869 245.554 86.8713 245.513 86.8398C245.462 86.8008 245.332 86.7145 245.085 86.6053C244.558 86.3728 243.584 86.0899 242.06 86.0063C238.915 85.8343 234.696 86.5734 230.404 88.3187C228.153 89.2342 226.168 90.317 224.517 91.4296C225.038 95.4892 224.94 99.7844 224.418 104.187L223.941 107.573C217.94 144.455 186.976 160.357 158 166.299C142.764 169.423 126.768 170.145 112.34 169.539C104.68 173.232 96.3479 176.276 87.7349 178.725C61.3585 186.223 28.9538 189.233 -4.66979 187.26L-11.4153 186.797L-12.7282 186.627C-19.1825 185.452 -23.8441 179.527 -23.3408 172.804C-22.8364 166.082 -17.345 160.948 -10.7904 160.79L-9.46107 160.823L-3.18076 161.256C23.0011 162.79 47.876 161.01 68.8292 156.552C68.6314 155.931 68.4808 155.29 68.3758 154.634L60.1583 103.178C59.1092 96.6092 63.1442 90.3048 69.5171 88.5627L69.5545 88.5567C69.5773 88.5505 69.6117 88.5392 69.6523 88.5282C69.7348 88.5059 69.8557 88.4737 70.0081 88.4328C70.3121 88.3511 70.7519 88.2366 71.3094 88.0897C72.428 87.7949 74.0305 87.3747 75.9724 86.8876C79.8448 85.9164 85.1372 84.6468 90.7582 83.4635C96.3332 82.2899 102.46 81.1532 107.934 80.5079ZM111.005 106.382C106.635 106.897 101.359 107.855 96.1094 108.961C93.1223 109.589 90.2162 110.253 87.588 110.875L92.4771 141.49C96.7651 142.164 101.55 142.733 106.657 143.122C116.251 137.605 122.172 131.494 124.67 125.54L125.216 124.152C127.683 117.412 126.235 113.833 124.914 111.807C123.059 108.964 119.798 106.911 117.32 106.031C117.134 106.016 116.782 105.996 116.227 105.999C114.943 106.005 113.193 106.124 111.005 106.382ZM323.888 74.2459C327.789 77.6817 332.355 80.9592 337.611 83.9129C341.059 79.4644 343.943 74.9697 346.305 70.6658L323.888 74.2459Z" fill="#C9C9C9"/>
</g>
<defs>
<clipPath id="clip0_533_13178">
<rect width="450" height="220" fill="white"/>
</clipPath>
</defs>
</svg>
