<svg width="182" height="60" viewBox="0 0 182 60" fill="none" xmlns="http://www.w3.org/2000/svg">
<path d="M73.6299 6.51702C74.0601 6.53477 74.4965 6.56866 74.8976 6.63105C75.2165 6.68066 75.6348 6.76528 76.0379 6.93914L76.2099 7.02016L76.3968 7.11919C77.349 7.64642 78.5194 8.63973 79.1767 10.119C79.8924 11.7303 79.8854 13.6671 78.7771 15.6906L78.5408 16.0967C78.3439 16.4153 78.1221 16.7152 77.8822 17.0009C78.2815 17.0069 78.6798 17.0054 79.0748 16.9879C83.0971 16.8105 86.0192 15.4396 87.0533 12.3016L87.1651 11.9345C87.3392 11.31 87.3433 10.9597 87.3283 10.8012C87.1237 10.7413 86.707 10.6943 86.0061 10.7732C85.4625 10.8344 84.8412 10.959 84.1628 11.1363L83.4656 11.3314C82.3919 11.6478 81.2679 11.0239 80.9547 9.93797C80.6415 8.85184 81.2585 7.71505 82.3323 7.39826L83.1422 7.1722C83.9555 6.95937 84.775 6.7892 85.5581 6.70107C86.5681 6.58743 87.7087 6.58547 88.7375 6.95714C89.0542 7.07158 89.3566 7.22315 89.6374 7.40927C90.2264 7.12977 90.8485 6.91798 91.4619 6.77509C92.6083 6.50806 93.8933 6.4332 95.0803 6.69107C96.2571 6.94676 97.5914 7.59922 98.3269 8.99871C99.0666 10.4066 98.92 12.0381 98.2913 13.627L98.2923 13.628C97.7778 14.9342 97.429 15.7253 97.0493 16.4168C97.0367 16.4396 97.0223 16.4612 97.0097 16.4838C98.1339 16.6657 99.417 16.7153 100.915 16.5558L101.535 16.4758C103.046 16.2459 104.398 15.7797 105.598 15.1754C103.853 13.5747 102.609 11.7511 101.875 9.87396L101.754 9.55087C101.529 8.92298 101.621 8.22333 102 7.67634C102.379 7.12938 102.998 6.80411 103.658 6.8041L114.291 6.8031L114.417 6.8071C115.044 6.84646 115.621 7.17985 115.974 7.71235C116.35 8.2801 116.421 9.0001 116.164 9.63189C115.602 11.0122 114.447 12.9802 112.67 14.8784C116.393 16.4765 121.629 17.2373 128.64 16.0497C129.743 15.863 130.787 16.6164 130.972 17.7322C131.157 18.848 130.412 19.9039 129.309 20.0908C120.663 21.5553 113.962 20.3192 109.263 17.7692C107.211 19.1317 104.712 20.2001 101.743 20.583L101.338 20.631C97.9576 20.9908 95.3044 20.495 93.0887 19.6387C92.5107 19.4151 92.0658 18.9365 91.8802 18.3393C91.6947 17.7421 91.7885 17.0917 92.1363 16.5738L92.1383 16.5718L92.166 16.5298C92.1848 16.5018 92.2115 16.4624 92.2412 16.4178C92.302 16.3264 92.372 16.2198 92.4231 16.1407L93.0808 15.1344C93.2466 14.8778 93.3742 14.6708 93.508 14.4272C93.7587 13.9707 94.0314 13.3761 94.5295 12.1116L94.5305 12.1076L94.6472 11.7815C94.7406 11.4845 94.77 11.2718 94.7738 11.1333C94.7762 11.0437 94.7681 10.9881 94.7619 10.9593C94.7588 10.9447 94.7549 10.9355 94.753 10.9303C94.7511 10.925 94.7504 10.922 94.75 10.9212C94.7498 10.9208 94.7487 10.9182 94.7431 10.9122C94.7362 10.9049 94.7183 10.8883 94.6828 10.8652C94.6069 10.816 94.4634 10.748 94.2299 10.6972C93.7478 10.5925 93.0773 10.6026 92.3707 10.7672C92.0001 10.8536 91.6665 10.9725 91.3838 11.1043C91.3641 11.7476 91.2429 12.4122 91.0535 13.0829L90.8962 13.597C89.0578 19.1755 83.8782 20.877 79.2518 21.0811C76.8192 21.1884 74.3284 20.9038 72.1129 20.4519C70.8374 20.8354 69.4741 21.1015 68.0821 21.2681C63.8192 21.7784 58.7351 21.4422 53.5856 20.3019L52.5542 20.0628L52.3554 20.0038C51.3866 19.6613 50.8122 18.6255 51.056 17.5941C51.2999 16.5627 52.2757 15.9016 53.2929 16.0397L53.4976 16.0777L54.4578 16.3008C58.4677 17.1883 62.3573 17.5287 65.7067 17.356C65.6914 17.2548 65.684 17.1515 65.6839 17.047V8.85267C65.6839 7.80653 66.4634 6.92758 67.4917 6.8151H67.4976C67.5013 6.8147 67.5069 6.8138 67.5134 6.8131C67.5267 6.81167 67.5462 6.80968 67.5708 6.8071C67.6198 6.80195 67.6906 6.79508 67.7804 6.78609C67.9607 6.76807 68.2188 6.74255 68.531 6.71507C69.1537 6.66029 70.0032 6.59438 70.9014 6.55003C71.7923 6.50604 72.7676 6.48147 73.6299 6.51702ZM73.4657 10.6112C72.7775 10.5828 71.9381 10.6008 71.0992 10.6422C70.6219 10.6657 70.1562 10.6967 69.7345 10.7282V15.6036C70.3808 15.8146 71.1064 16.0217 71.8864 16.2087C73.5059 15.5899 74.5722 14.7878 75.1053 13.9251L75.224 13.723C75.7718 12.7376 75.6363 12.1459 75.4821 11.7985C75.2656 11.3111 74.8121 10.9113 74.4506 10.7132C74.4223 10.7063 74.3683 10.6945 74.2825 10.6812C74.0839 10.6503 73.8104 10.6254 73.4657 10.6112ZM107.171 10.9002C107.689 11.5305 108.314 12.1528 109.054 12.7418C109.697 12.1365 110.254 11.51 110.725 10.9002H107.171Z" fill="#FC650D"/>
<path d="M121.895 27.4687C122.568 27.4687 122.953 27.8437 122.953 28.5V30.6562C122.953 31.3125 122.568 31.6875 121.895 31.6875H117.663V38.875C117.663 42.0938 119.619 44.6875 122.119 45.0312C122.793 45.125 123.113 45.4375 123.113 46.0312V48.375C123.113 49 122.793 49.3437 122.119 49.25C118.913 48.8125 116.22 46.875 115.387 44.1562C114.521 46.875 111.796 48.8125 108.558 49.25C107.884 49.3437 107.5 49 107.5 48.375V46.0312C107.5 45.4375 107.852 45.125 108.558 45.0312C111.058 44.6875 113.014 42.0938 113.014 38.875V31.6875H108.718C108.045 31.6875 107.66 31.3125 107.66 30.6562V28.5C107.66 27.8437 108.045 27.4687 108.718 27.4687H121.895ZM126.351 26.5312C126.351 25.875 126.736 25.5 127.409 25.5H129.942C130.615 25.5 131 25.875 131 26.5312V52.4688C131 53.125 130.615 53.5 129.942 53.5H127.409C126.736 53.5 126.351 53.125 126.351 52.4688V26.5312Z" fill="#121212"/>
<path d="M91.1924 46.8748C90.6153 46.6248 90.2627 46.0936 90.2627 45.4373V40.3748C90.2627 39.7186 90.6474 39.3436 91.3206 39.3436H93.8855C94.5587 39.3436 94.9114 39.7186 94.9114 40.3748V45.5623C94.9114 46.2811 95.3602 46.6873 96.29 46.7186C97.8609 46.7811 101.099 46.5936 103.6 46.2811C104.273 46.1873 104.69 46.5623 104.69 47.2186V49.5311C104.69 50.0936 104.369 50.4061 103.632 50.5311C101.644 50.8748 97.0915 51.0623 92.0901 51.0623C87.6017 51.0623 83.3697 50.9061 80.5805 50.5311C79.8431 50.4373 79.5225 50.1248 79.5225 49.5311V47.2186C79.5225 46.5623 79.9072 46.2186 80.5805 46.2811C82.985 46.4998 87.3452 46.7811 91.1924 46.8748ZM80.9011 31.3436V28.7811C80.9011 28.1873 81.1575 27.8436 81.7346 27.6561C82.7926 27.2811 83.7544 27.1248 84.8445 27.1248C88.1467 27.1248 89.8459 28.9061 89.8459 32.4061C89.8459 35.4998 89.4291 39.0623 88.7558 42.1561C88.6276 42.6873 88.339 42.8748 87.6978 42.7811L85.0689 42.4061C84.4277 42.3123 84.2033 41.9998 84.3315 41.3748C84.7804 39.0623 85.2292 35.8748 85.2292 33.2811C85.2292 31.9998 84.7483 31.4061 83.7544 31.4061C83.3376 31.4061 82.6964 31.5936 81.927 31.9373C81.7667 31.9998 81.6384 32.0311 81.5102 32.0311C81.1575 32.0311 80.9011 31.7811 80.9011 31.3436ZM97.4121 34.0311C97.4121 32.2498 96.6106 31.4061 94.9755 31.4061C94.2381 31.4061 93.3084 31.5936 92.1863 31.9373C92.058 31.9686 91.8977 31.9998 91.8016 31.9998C91.4168 31.9998 91.1603 31.7811 91.1603 31.3436V28.7811C91.1603 28.1873 91.4168 27.8123 91.9939 27.6561C93.3084 27.3123 94.6229 27.1248 95.8732 27.1248C99.8487 27.1248 102.029 29.2811 102.029 33.2186C102.029 36.2498 101.58 39.5311 100.971 42.1561C100.843 42.6873 100.554 42.8748 99.9128 42.7811L97.2839 42.4061C96.6427 42.3123 96.4182 41.9998 96.5465 41.4061C96.9633 39.3436 97.4121 36.4998 97.4121 34.0311Z" fill="#121212"/>
<path d="M52.058 50.5313C51.3206 50.4376 51 50.1251 51 49.5313V47.2188C51 46.5626 51.3847 46.2188 52.058 46.2813C54.4625 46.5001 58.6624 46.7501 62.2532 46.8438C61.644 46.5626 61.2593 45.9688 61.2593 45.1876V42.7501H57.925C55.1678 42.7501 53.661 41.4376 53.661 39.0938V28.9688C53.661 27.7813 54.2701 27.1563 55.4884 27.1563H68.3446C71.9033 27.1563 73.8269 29.0001 73.8269 32.3438C73.8269 35.0313 72.6086 37.5626 70.8133 38.6876H73.2819C73.9552 38.6876 74.2758 39.0001 74.2758 39.6563V41.7813C74.2758 42.4063 73.9552 42.7501 73.2819 42.7501H65.908V45.4376C65.908 46.7501 66.9019 46.7501 67.9278 46.7501C69.6912 46.7501 72.8651 46.5626 75.0773 46.2813C75.7505 46.1876 76.1673 46.5626 76.1673 47.2188V49.5313C76.1673 50.0938 75.8467 50.4063 75.1093 50.5313C73.1216 50.8751 68.569 51.0626 63.5676 51.0626C59.0792 51.0626 54.8472 50.9063 52.058 50.5313ZM58.3097 37.2188C58.3097 38.0313 58.8868 38.5313 59.8807 38.5313H66.1966C67.8958 38.5313 69.1782 36.6251 69.1782 34.1251C69.1782 32.2813 68.3126 31.3751 66.6775 31.3751H59.2395C58.5983 31.3751 58.3097 31.6563 58.3097 32.2813V37.2188Z" fill="#121212"/>
</svg>
